<svg width="71" height="81" viewBox="0 0 71 81" fill="none" xmlns="http://www.w3.org/2000/svg">
<path d="M13.1068 56.9452C13.3889 56.9452 13.5374 57.0952 13.5374 57.3802V59.8554C13.5374 60.1404 13.3889 60.2904 13.1068 60.2904H3.81223V63.4556H11.9635C12.2456 63.4556 12.3941 63.6056 12.3941 63.8906V66.3658C12.3941 66.6508 12.2456 66.8008 11.9635 66.8008H3.81223V70.461H13.3443C13.6264 70.461 13.7749 70.611 13.7749 70.896V73.4012C13.7749 73.6862 13.6264 73.8362 13.3443 73.8362H0.69425C0.412147 73.8362 0.263672 73.6862 0.263672 73.4012V57.3652C0.263672 57.1102 0.471537 56.9302 0.69425 56.9302H13.1068V56.9452Z" fill="#454444"/>
<path d="M31.6216 64.6554C31.9037 64.6554 32.0521 64.8054 32.0521 65.0905V73.386C32.0521 73.671 31.9037 73.821 31.6216 73.821H29.8102C29.5281 73.821 29.3796 73.731 29.3202 73.506L28.9787 72.4859C27.7761 73.566 26.1874 74.061 24.2572 74.061C19.3575 74.061 15.9277 70.4008 15.9277 65.3305C15.9277 60.3502 19.6693 56.6899 24.569 56.6899C27.4494 56.6899 30.3595 58.175 31.8591 60.5902C31.9779 60.8002 31.9482 60.9652 31.7997 61.0852L29.8696 62.5103C29.6617 62.7203 29.4093 62.6003 29.2905 62.4503C28.0582 60.8752 26.6179 60.0952 24.569 60.0952C21.5104 60.0952 19.4763 62.2553 19.4763 65.3305C19.4763 68.3907 21.4065 70.6558 24.4057 70.6558C26.3655 70.6558 27.4346 70.1608 28.5184 69.1707V65.0905C28.5184 64.8054 28.6669 64.6554 28.949 64.6554H31.6216Z" fill="#454444"/>
<path d="M41.0195 67.2208H46.8397L44.1375 60.2904H43.796L41.0195 67.2208ZM48.0721 70.476H39.7426L38.5845 73.4462C38.4954 73.7012 38.3024 73.8212 38.0648 73.8212H35.0359C34.7241 73.8212 34.6351 73.6712 34.7241 73.3862L41.9549 57.1852C42.0143 57.0352 42.1331 56.9302 42.3558 56.9302H45.8449C46.0528 56.9302 46.1864 57.0202 46.2458 57.1852L53.1351 73.3112C53.2242 73.5662 53.0757 73.8062 52.7936 73.8062H49.8835C49.5717 73.8062 49.3638 73.6562 49.245 73.3712L48.0721 70.476Z" fill="#454444"/>
<path d="M64.0634 65.9157C65.9342 65.9157 67.0032 64.7457 67.0032 63.0956C67.0032 61.4905 65.9342 60.3354 64.0634 60.3354H59.624V65.9157H64.0634ZM64.0634 56.9452C67.7752 56.9452 70.5666 59.6453 70.5666 63.1106C70.5666 66.6958 67.7752 69.3359 64.0634 69.3359H59.624V73.3862C59.624 73.6712 59.4755 73.8212 59.1934 73.8212H56.4911C56.209 73.8212 56.0605 73.6712 56.0605 73.3862V57.3652C56.0605 57.0802 56.209 56.9302 56.4911 56.9302H64.0634V56.9452Z" fill="#454444"/>
<path d="M69.6158 78.0967H0.456055V80.0018H69.6158V78.0967Z" fill="#E30613"/>
<path d="M29.7059 22.7577H38.8074C38.8074 22.2777 38.6441 21.6326 38.3323 21.1526C37.6493 19.8625 36.2239 18.9025 34.3235 18.9025C31.6064 18.9025 29.7801 20.8226 29.7059 22.7577ZM43.0538 19.6675C43.8853 21.5126 43.9298 24.2428 43.3656 25.9679H29.4832C29.4832 28.6981 31.7103 30.1832 34.4125 30.1832C36.4763 30.1832 38.6292 29.7031 40.4109 28.7731L43.0686 31.6983C40.9157 33.3034 37.9314 34.8334 34.3977 34.8334C28.3547 34.8334 24.2568 30.4082 24.2568 24.5428C24.2568 18.8425 28.0726 14.2222 34.2789 14.2222C38.5698 14.2372 41.5542 16.2923 43.0538 19.6675Z" fill="#E30613"/>
<path d="M43.2314 42.1538C43.2314 40.3687 44.6717 38.9136 46.4385 38.9136C48.2054 38.9136 49.6456 40.3687 49.6456 42.1538C49.6456 43.9389 48.2054 45.394 46.4385 45.394C44.6717 45.394 43.2314 43.9539 43.2314 42.1538Z" fill="#454444"/>
<path d="M18.3174 42.1538C18.3174 40.3687 19.7576 38.9136 21.5244 38.9136C23.2913 38.9136 24.7315 40.3687 24.7315 42.1538C24.7315 43.9389 23.2913 45.394 21.5244 45.394C19.7576 45.394 18.3174 43.9539 18.3174 42.1538Z" fill="#454444"/>
<path d="M10.7158 18.1831C10.7158 16.398 12.156 14.9429 13.9229 14.9429C15.6897 14.9429 17.1299 16.398 17.1299 18.1831C17.1299 19.9682 15.6897 21.4233 13.9229 21.4233C12.156 21.4233 10.7158 19.9682 10.7158 18.1831Z" fill="#454444"/>
<path d="M30.8203 3.24167C30.8203 1.45655 32.2605 0.00146484 34.0274 0.00146484C35.7942 0.00146484 37.2344 1.45655 37.2344 3.24167C37.2344 5.02678 35.7942 6.48187 34.0274 6.48187C32.2457 6.48187 30.8203 5.02678 30.8203 3.24167Z" fill="#454444"/>
<path d="M50.9082 18.1831C50.9082 16.398 52.3484 14.9429 54.1153 14.9429C55.8821 14.9429 57.3223 16.398 57.3223 18.1831C57.3223 19.9682 55.8821 21.4233 54.1153 21.4233C52.3484 21.4233 50.9082 19.9682 50.9082 18.1831Z" fill="#454444"/>
<path d="M19.3126 24.5729C19.4017 24.5129 19.4908 24.4679 19.565 24.4229C19.565 24.3479 19.5799 24.2879 19.5799 24.2129C19.7135 24.0329 19.8323 23.8529 19.951 23.6729L22.1188 16.9374C22.1188 16.8024 22.1336 16.6674 22.1336 16.5324C22.1336 16.5024 22.1336 16.4724 22.1336 16.4424C22.1485 16.4274 22.1485 16.4124 22.1633 16.3974C22.1485 16.3674 22.1336 16.3374 22.1336 16.3074C21.7179 15.0923 20.9904 13.9523 19.9362 12.9772L20.1441 12.9322C20.2183 12.7672 20.3074 12.6022 20.3816 12.4372C20.5746 12.0621 20.8122 11.7021 21.0646 11.3721C21.5397 10.7421 22.0891 10.187 22.7127 9.722C23.1878 9.33197 23.7075 8.98695 24.2568 8.71693C24.6874 8.47692 25.1328 8.28191 25.5931 8.1319C25.9643 8.01189 26.3355 7.90688 26.7215 7.83188L26.7661 7.75688C26.7809 7.77188 26.7958 7.80188 26.7958 7.81688C26.9591 7.78688 27.1224 7.74187 27.2857 7.72687L27.3897 7.54686C27.9836 8.86694 28.8447 9.90201 29.8543 10.6821C29.884 10.6971 29.8989 10.7271 29.9286 10.7421C29.9434 10.7421 29.9583 10.7271 29.988 10.7271C30.2849 10.8321 30.5819 10.9221 30.8937 10.9971H37.189C37.5008 10.9221 37.7978 10.8321 38.0947 10.7271C38.1096 10.7271 38.1393 10.7421 38.1541 10.7421C38.1838 10.7271 38.2135 10.6971 38.2432 10.6671C39.2528 9.88701 40.0991 8.85194 40.693 7.54686L40.797 7.72687C40.9603 7.74187 41.1236 7.78688 41.2869 7.81688C41.3018 7.80188 41.3166 7.77188 41.3166 7.75688L41.3612 7.83188C41.7472 7.90688 42.1184 8.01189 42.4896 8.1319C42.9499 8.28191 43.4101 8.47692 43.8259 8.71693C44.3752 8.98695 44.8949 9.33197 45.37 9.722C45.9936 10.187 46.5281 10.7421 47.0032 11.3571C47.2556 11.7021 47.508 12.0621 47.7011 12.4372C47.7901 12.6022 47.8644 12.7522 47.9386 12.9322L48.1465 12.9772C47.0626 13.9673 46.3351 15.1373 45.9194 16.3824C45.9194 16.3974 45.9194 16.3974 45.9045 16.3974C45.9045 16.3974 45.9045 16.4124 45.9194 16.4124C45.9194 16.4574 45.9194 16.4874 45.9194 16.5324C45.9194 16.6374 45.9342 16.7424 45.9342 16.8474L48.1465 23.7329C48.2653 23.8979 48.3692 24.0779 48.5028 24.2429C48.5028 24.3029 48.5177 24.3629 48.5177 24.4079C48.5919 24.4529 48.6661 24.4979 48.7255 24.5429C49.7203 25.203 50.8933 25.653 52.2147 25.803L52.0662 25.953C52.0959 26.103 52.1108 26.238 52.1256 26.388C52.1553 26.388 52.1702 26.403 52.185 26.403L52.1256 26.463C52.185 26.8381 52.1999 27.1981 52.1999 27.5731C52.1999 28.1881 52.1405 28.8032 52.0068 29.3882C51.9771 29.5532 51.9326 29.7032 51.9029 29.8532C51.9029 29.8682 51.9029 29.8832 51.8881 29.8983C51.6505 31.0983 51.1457 32.2384 50.4182 33.2285C50.1212 33.6335 49.7797 34.0235 49.3937 34.3685L49.4234 34.5785C48.3989 33.9935 47.3447 33.6635 46.3054 33.5435C46.0975 33.5135 45.9045 33.4985 45.6966 33.4985L45.4294 33.6935C45.3997 33.7385 45.3551 33.7835 45.3255 33.8285C45.2661 33.8435 45.2215 33.8735 45.177 33.8885L39.2528 38.2388C39.2083 38.2988 39.1637 38.3438 39.134 38.3888C39.0746 38.4188 39.0004 38.4338 38.941 38.4638L38.7035 38.6438C38.6589 38.8388 38.6144 39.0338 38.5698 39.2288C38.362 40.2639 38.3471 41.359 38.5847 42.499L38.3917 42.409C37.9462 42.664 37.486 42.8741 37.0108 43.0391C36.0458 43.3691 35.051 43.5191 34.0413 43.4741C33.002 43.5191 31.9627 43.3541 30.9679 43.0091C30.5225 42.8591 30.0919 42.664 29.691 42.424L29.498 42.514C29.7207 41.464 29.7207 40.4439 29.5722 39.4988C29.5277 39.2138 29.4535 38.9288 29.3792 38.6588L29.1417 38.4788C29.0377 38.4338 28.9189 38.3888 28.815 38.3588C28.7408 38.2688 28.6665 38.1788 28.6071 38.0888L22.9799 33.9635C22.9057 33.9335 22.8315 33.9035 22.7572 33.8735C22.7127 33.8135 22.6533 33.7535 22.6088 33.6935L22.3415 33.4985C22.1188 33.5135 21.8812 33.5285 21.6585 33.5585C20.634 33.6785 19.5947 34.0085 18.5999 34.5785L18.6296 34.3685C18.2436 34.0235 17.9169 33.6335 17.6051 33.2285C16.8776 32.2384 16.3728 31.0983 16.1352 29.8983C16.1352 29.8832 16.1352 29.8682 16.1204 29.8532C16.0758 29.7032 16.0461 29.5382 16.0165 29.3882C15.8828 28.7882 15.8234 28.1731 15.8234 27.5581C15.8234 27.1981 15.8383 26.8231 15.8977 26.463L15.8383 26.403C15.868 26.403 15.8828 26.388 15.8977 26.388C15.9125 26.238 15.9274 26.088 15.9571 25.953L15.8086 25.803C17.1746 25.653 18.3178 25.203 19.3126 24.5729ZM18.0357 18.1825C18.0357 20.4777 16.1946 22.3378 13.923 22.3378C13.5666 22.3378 13.2251 22.2928 12.8985 22.2028C12.7945 23.0428 12.75 23.8829 12.75 24.7379C12.75 30.4083 14.9177 35.5536 18.4663 39.3938C19.2235 38.5388 20.3074 38.0138 21.5249 38.0138C23.7966 38.0138 25.6376 39.8739 25.6376 42.169C25.6376 42.9341 25.4298 43.6391 25.0734 44.2541C27.7905 45.5292 30.8194 46.2493 34.0116 46.2493C37.189 46.2493 40.1882 45.5442 42.8905 44.2841C42.5341 43.6691 42.3114 42.9491 42.3114 42.184C42.3114 39.8889 44.1525 38.0288 46.4242 38.0288C47.6565 38.0288 48.7701 38.5838 49.5125 39.4538C53.0759 35.6136 55.2733 30.4383 55.2733 24.7529C55.2733 23.8979 55.2139 23.0428 55.1248 22.2178C54.7982 22.3078 54.4567 22.3528 54.1003 22.3528C51.8287 22.3528 49.9876 20.4927 49.9876 18.1975C49.9876 16.4424 51.0714 14.9423 52.6007 14.3273C49.6015 8.88194 44.3307 4.8917 38.0799 3.66162C37.872 5.76175 36.12 7.41185 33.9968 7.41185C31.8588 7.41185 30.1067 5.76175 29.9137 3.66162C23.6629 4.8917 18.3921 8.88194 15.3929 14.3273C16.9518 14.9123 18.0357 16.4124 18.0357 18.1825Z" fill="#454444"/>
</svg>
