<?xml version="1.0" encoding="UTF-8" standalone="no"?>
<svg
   xmlns:dc="http://purl.org/dc/elements/1.1/"
   xmlns:cc="http://creativecommons.org/ns#"
   xmlns:rdf="http://www.w3.org/1999/02/22-rdf-syntax-ns#"
   xmlns:svg="http://www.w3.org/2000/svg"
   xmlns="http://www.w3.org/2000/svg"
   xmlns:sodipodi="http://sodipodi.sourceforge.net/DTD/sodipodi-0.dtd"
   xmlns:inkscape="http://www.inkscape.org/namespaces/inkscape"
   width="80"
   height="80"
   viewBox="0 0 80 80"
   fill="none"
   version="1.1"
   id="svg888"
   sodipodi:docname="logo_2.svg"
   inkscape:version="1.0 (4035a4f, 2020-05-01)">
  <metadata
     id="metadata892">
    <rdf:RDF>
      <cc:Work
         rdf:about="">
        <dc:format>image/svg+xml</dc:format>
        <dc:type
           rdf:resource="http://purl.org/dc/dcmitype/StillImage" />
        <dc:title></dc:title>
      </cc:Work>
    </rdf:RDF>
  </metadata>
  <sodipodi:namedview
     inkscape:document-rotation="0"
     pagecolor="#ffffff"
     bordercolor="#666666"
     borderopacity="1"
     objecttolerance="10"
     gridtolerance="10"
     guidetolerance="10"
     inkscape:pageopacity="0"
     inkscape:pageshadow="2"
     inkscape:window-width="1440"
     inkscape:window-height="855"
     id="namedview890"
     showgrid="false"
     fit-margin-top="0"
     fit-margin-left="0"
     fit-margin-right="0"
     fit-margin-bottom="0"
     inkscape:zoom="1.2451682"
     inkscape:cx="84.526266"
     inkscape:cy="32.970777"
     inkscape:window-x="0"
     inkscape:window-y="23"
     inkscape:window-maximized="1"
     inkscape:current-layer="svg888" />
  <g
     transform="translate(7.5836344,6.5)"
     id="g854">
    <path
       style="fill:url(#paint0_linear)"
       id="path865"
       fill="url(#paint0_linear)"
       d="m 55.536869,28.6587 h -25.9165 -17.0681 c -1.4506,0 -2.8527801,0.6325 -3.8681701,1.703 l -8.074724,8.7581 8.703294,-0.7785 h 25.8681001 17.0682 c 1.4505,0 2.8527,-0.6325 3.8681,-1.7029 l 8.0747,-8.8069 z" />
    <path
       style="fill:url(#paint1_linear)"
       id="path867"
       fill="url(#paint1_linear)"
       d="m 62.450869,28.6587 h -6.9626 c -2.1758,-10.7531 -11.6528,-18.83009 -22.967,-18.83009 -7.833,0 -14.7956,3.89249 -19.0506,9.82859 L 5.5410189,13.7698 C 11.584969,5.44953 21.351969,0 32.424569,0 c 15.7142,0 28.8659,10.9477 32.3472,25.6906 0.3385,1.5084 -0.7736,2.9681 -2.3209,2.9681 z" />
    <path
       style="fill:url(#paint2_linear)"
       id="path869"
       fill="url(#paint2_linear)"
       d="m 2.3498489,38.3413 h 6.96264 c 2.1757801,10.7531 11.6527801,18.8301 22.9670801,18.8301 7.8329,0 14.7956,-3.8925 19.0505,-9.8286 l 7.978,5.8874 C 53.264169,61.5991 43.448769,67 32.424569,67 16.710269,67 3.5586489,56.0523 0.0773255,41.3094 -0.3094881,39.801 0.8025999,38.3413 2.3498489,38.3413 Z" />
  </g>
  <defs
     id="defs886">
    <linearGradient
       id="paint0_linear"
       x1="9.3235502"
       y1="33.499001"
       x2="75.906403"
       y2="33.499001"
       gradientUnits="userSpaceOnUse"
       gradientTransform="translate(-0.0195311)">
      <stop
         offset="0.00723453"
         stop-color="#1ACEC4"
         id="stop871" />
      <stop
         offset="1"
         stop-color="#1699B4"
         id="stop873" />
    </linearGradient>
    <linearGradient
       id="paint1_linear"
       x1="25.712099"
       y1="6.8934102"
       x2="53.482498"
       y2="33.559601"
       gradientUnits="userSpaceOnUse"
       gradientTransform="translate(-0.0195311)">
      <stop
         offset="0.00723453"
         stop-color="#1ACEC4"
         id="stop876" />
      <stop
         offset="1"
         stop-color="#1699B4"
         id="stop878" />
    </linearGradient>
    <linearGradient
       id="paint2_linear"
       x1="59.279999"
       y1="52.672699"
       x2="0.00015432099"
       y2="52.672699"
       gradientUnits="userSpaceOnUse"
       gradientTransform="translate(-0.0195311)">
      <stop
         offset="0.00723453"
         stop-color="#1ACEC4"
         id="stop881" />
      <stop
         offset="1"
         stop-color="#1699B4"
         id="stop883" />
    </linearGradient>
  </defs>
</svg>
