<?xml version="1.0" encoding="UTF-8" standalone="no"?>
<svg
   xmlns:dc="http://purl.org/dc/elements/1.1/"
   xmlns:cc="http://creativecommons.org/ns#"
   xmlns:rdf="http://www.w3.org/1999/02/22-rdf-syntax-ns#"
   xmlns:svg="http://www.w3.org/2000/svg"
   xmlns="http://www.w3.org/2000/svg"
   xmlns:sodipodi="http://sodipodi.sourceforge.net/DTD/sodipodi-0.dtd"
   xmlns:inkscape="http://www.inkscape.org/namespaces/inkscape"
   inkscape:version="1.0 (4035a4f, 2020-05-01)"
   sodipodi:docname="swiss-logo-footer.svg"
   id="svg243"
   version="1.1"
   fill="none"
   viewBox="0 0 209 81"
   height="81"
   width="209">
  <metadata
     id="metadata247">
    <rdf:RDF>
      <cc:Work
         rdf:about="">
        <dc:format>image/svg+xml</dc:format>
        <dc:type
           rdf:resource="http://purl.org/dc/dcmitype/StillImage" />
        <dc:title></dc:title>
      </cc:Work>
    </rdf:RDF>
  </metadata>
  <sodipodi:namedview
     inkscape:current-layer="svg243"
     inkscape:window-maximized="1"
     inkscape:window-y="23"
     inkscape:window-x="0"
     inkscape:cy="66.009455"
     inkscape:cx="72.168991"
     inkscape:zoom="2.6448065"
     showgrid="false"
     id="namedview245"
     inkscape:window-height="855"
     inkscape:window-width="1440"
     inkscape:pageshadow="2"
     inkscape:pageopacity="0"
     guidetolerance="10"
     gridtolerance="10"
     objecttolerance="10"
     borderopacity="1"
     bordercolor="#666666"
     pagecolor="#ffffff" />
  <path
     d="m 39.9414,8.78643 c 0.4103,0.26373 0.8791,0.41025 1.5531,0.41025 0.8499,0 1.5825,-0.43956 1.5825,-1.43589 0,-1.37729 -3.1942,-1.55312 -3.1942,-3.36997 0,-1.11355 0.9963,-1.81685 2.2271,-1.81685 0.3517,0 0.8791,0.05861 1.3773,0.23444 L 43.37,3.4531 C 43.0476,3.27727 42.5788,3.18936 42.1099,3.18936 c -0.7326,0 -1.5238,0.29304 -1.5238,1.20146 0,1.4066 3.1941,1.4066 3.1941,3.45788 0,1.40659 -1.2014,1.96337 -2.2857,1.96337 -0.674,0 -1.2014,-0.14652 -1.5824,-0.29304 z"
     fill="#ffffff"
     id="path10"
     style="opacity:0.8;fill:#000000" />
  <path
     d="M 49.1718,5.24092 C 48.8202,5.0944 48.4099,4.97718 48.0876,4.97718 c -1.2308,0 -1.9341,0.87912 -1.9341,2.13919 0,1.17216 0.7033,2.1392 1.8461,2.1392 0.4103,0 0.7619,-0.08791 1.1429,-0.23443 l 0.0586,0.58608 c -0.4396,0.14652 -0.8205,0.17582 -1.3187,0.17582 -1.641,0 -2.4322,-1.26007 -2.4322,-2.66667 0,-1.58241 1.0256,-2.66666 2.5201,-2.66666 0.6154,0 1.055,0.14652 1.2308,0.20513 z"
     fill="#ffffff"
     id="path12"
     style="opacity:0.8;fill:#000000" />
  <path
     d="m 51.0772,2.16333 h 0.6446 v 3.25275 h 0.0294 c 0.2637,-0.55678 0.8498,-0.99634 1.5824,-0.99634 1.3773,0 1.7289,0.90842 1.7289,2.1685 V 9.63586 H 54.4178 V 6.61754 c 0,-0.87912 -0.1758,-1.64102 -1.2014,-1.64102 -1.1136,0 -1.5239,1.05494 -1.5239,1.96337 V 9.66516 H 51.0479 V 2.16333"
     fill="#ffffff"
     id="path14"
     style="opacity:0.8;fill:#000000" />
  <path
     d="M 62.6812,9.66555 H 61.9193 L 60.5127,5.24064 h -0.0293 l -1.4066,4.42491 h -0.7619 l -1.6411,-5.0989 h 0.7033 l 1.348,4.42491 h 0.0293 l 1.4359,-4.42491 h 0.7619 l 1.348,4.42491 h 0.0293 l 1.4066,-4.42491 h 0.6447 z"
     fill="#ffffff"
     id="path16"
     style="opacity:0.8;fill:#000000" />
  <path
     d="m 69.1288,6.76423 c 0,-0.87912 -0.3517,-1.78755 -1.2894,-1.78755 -0.9377,0 -1.4945,0.93773 -1.4945,1.78755 z m 0.293,2.75458 c -0.4395,0.17582 -1.0256,0.29304 -1.4945,0.29304 -1.6996,0 -2.315,-1.14286 -2.315,-2.66667 0,-1.55311 0.8498,-2.66666 2.1392,-2.66666 1.4359,0 2.022,1.17216 2.022,2.52014 v 0.32235 h -3.4872 c 0,1.08425 0.5861,1.96337 1.6703,1.96337 0.4689,0 1.1429,-0.17583 1.4359,-0.38096 v 0.61539"
     fill="#ffffff"
     id="path18"
     style="opacity:0.8;fill:#000000" />
  <path
     d="m 71.7949,4.5667 h 0.6447 V 9.6656 H 71.7949 Z M 72.4396,3.18941 H 71.7949 V 2.3689 h 0.6447 z"
     fill="#ffffff"
     id="path20"
     style="opacity:0.8;fill:#000000" />
  <path
     d="M 74.3438,9.13808 77.4207,5.09412 H 74.461 V 4.56665 h 3.6923 v 0.52747 l -3.0769,4.04396 h 3.0769 v 0.52747 h -3.8095 z"
     fill="#ffffff"
     id="path22"
     style="opacity:0.8;fill:#000000" />
  <path
     d="m 83.1356,6.76423 c 0,-0.87912 -0.3516,-1.78755 -1.2894,-1.78755 -0.9377,0 -1.4945,0.93773 -1.4945,1.78755 z m 0.3224,2.75458 c -0.4396,0.17582 -1.0257,0.29304 -1.4945,0.29304 -1.6997,0 -2.3151,-1.14286 -2.3151,-2.66667 0,-1.55311 0.8499,-2.66666 2.1685,-2.66666 1.4359,0 2.022,1.17216 2.022,2.52014 v 0.32235 h -3.4872 c 0,1.08425 0.5861,1.96337 1.6704,1.96337 0.4688,0 1.1428,-0.17583 1.4359,-0.38096 z"
     fill="#ffffff"
     id="path24"
     style="opacity:0.8;fill:#000000" />
  <path
     d="m 85.8311,5.70978 c 0,-0.55678 0,-0.7619 -0.0293,-1.14286 h 0.6446 v 0.99634 h 0.0294 c 0.2344,-0.55678 0.6739,-1.11355 1.3186,-1.11355 0.1466,0 0.3224,0.0293 0.4396,0.05861 V 5.18231 C 88.1168,5.153 87.941,5.1237 87.7651,5.1237 c -0.9963,0 -1.26,1.11355 -1.26,2.05128 V 9.69513 H 85.8604 V 5.70978"
     fill="#ffffff"
     id="path26"
     style="opacity:0.8;fill:#000000" />
  <path
     d="m 89.9336,4.5667 h 0.6447 V 9.6656 H 89.9336 Z M 90.5783,3.18941 H 89.9336 V 2.3689 h 0.6447 z"
     fill="#ffffff"
     id="path28"
     style="opacity:0.8;fill:#000000" />
  <path
     d="m 92.542,8.93322 c 0.381,0.17583 0.8498,0.32235 1.3187,0.32235 0.6154,0 1.1429,-0.32235 1.1429,-0.90843 0,-1.20146 -2.4616,-1.02564 -2.4616,-2.49084 0,-1.02564 0.8205,-1.40659 1.6703,-1.40659 0.2638,0 0.8206,0.05861 1.2601,0.23443 L 95.4138,5.24092 C 95.0915,5.0944 94.6226,5.00648 94.271,5.00648 c -0.6447,0 -1.1136,0.20513 -1.1136,0.84982 0,0.93773 2.5201,0.82051 2.5201,2.49084 0,1.08425 -1.0256,1.46521 -1.7875,1.46521 -0.4982,0 -0.9963,-0.05861 -1.4359,-0.23444 z"
     fill="#ffffff"
     id="path30"
     style="opacity:0.8;fill:#000000" />
  <path
     d="M 100.952,5.24116 C 100.6,5.09464 100.19,4.97742 99.8678,4.97742 c -1.2307,0 -1.934,0.87912 -1.934,2.1392 0,1.17216 0.7033,2.13919 1.8461,2.13919 0.4101,0 0.7621,-0.08791 1.1431,-0.23443 l 0.058,0.58608 c -0.439,0.14652 -0.82,0.17582 -1.3183,0.17582 -1.641,0 -2.4322,-1.26007 -2.4322,-2.66666 0,-1.58242 1.0256,-2.66667 2.5201,-2.66667 0.6154,0 1.0554,0.14652 1.2304,0.20513 z"
     fill="#ffffff"
     id="path32"
     style="opacity:0.8;fill:#000000" />
  <path
     d="m 102.857,2.16333 h 0.645 v 3.25275 h 0.029 c 0.264,-0.55678 0.85,-0.99634 1.583,-0.99634 1.377,0 1.729,0.90842 1.729,2.1685 v 3.04762 h -0.645 V 6.61754 c 0,-0.87912 -0.176,-1.64102 -1.201,-1.64102 -1.114,0 -1.524,1.05494 -1.524,1.96337 v 2.72527 h -0.616 z"
     fill="#ffffff"
     id="path34"
     style="opacity:0.8;fill:#000000" />
  <path
     d="m 112.322,6.76423 c 0,-0.87912 -0.352,-1.78755 -1.289,-1.78755 -0.938,0 -1.495,0.93773 -1.495,1.78755 z m 0.322,2.75458 c -0.439,0.17582 -1.025,0.29304 -1.494,0.29304 -1.7,0 -2.315,-1.14286 -2.315,-2.66667 0,-1.55311 0.85,-2.66666 2.168,-2.66666 1.436,0 2.022,1.17216 2.022,2.52014 v 0.32235 h -3.487 c 0,1.08425 0.586,1.96337 1.671,1.96337 0.468,0 1.142,-0.17583 1.435,-0.38096 z"
     fill="#ffffff"
     id="path36"
     style="opacity:0.8;fill:#000000" />
  <path
     d="m 118.33,2.69092 h 3.429 V 3.277 h -2.726 v 2.49084 h 2.608 v 0.61539 h -2.608 V 9.0792 h 2.843 v 0.61538 h -3.546 z"
     fill="#ffffff"
     id="path38"
     style="opacity:0.8;fill:#000000" />
  <path
     d="m 124.044,4.5667 h 0.645 v 5.0989 h -0.645 z m 0.645,-1.37729 h -0.645 V 2.3689 h 0.645 z"
     fill="#ffffff"
     id="path40"
     style="opacity:0.8;fill:#000000" />
  <path
     d="m 128.967,9.25491 c 1.114,0 1.524,-1.20147 1.524,-2.1392 0,-0.93773 -0.381,-2.13919 -1.524,-2.13919 -1.201,0 -1.523,1.14285 -1.523,2.13919 0,0.99634 0.322,2.1392 1.523,2.1392 z m 2.14,0.41025 h -0.645 V 8.84465 h -0.029 c -0.352,0.64469 -0.85,0.93773 -1.583,0.93773 -1.406,0 -2.11,-1.17216 -2.11,-2.66667 0,-1.55311 0.616,-2.66667 2.11,-2.66667 0.996,0 1.495,0.73261 1.583,0.99634 h 0.029 V 2.16333 h 0.645 z"
     fill="#ffffff"
     id="path42"
     style="opacity:0.8;fill:#000000" />
  <path
     d="m 135.267,9.13811 c 1.143,0 1.553,-1.08424 1.553,-2.02197 0,-1.23077 -0.351,-2.1392 -1.524,-2.1392 -1.201,0 -1.523,1.14286 -1.523,2.1392 0.029,0.99633 0.439,2.02197 1.494,2.02197 z m 2.198,0.11722 c 0,1.43587 -0.645,2.57877 -2.403,2.57877 -0.674,0 -1.289,-0.1758 -1.553,-0.2638 l 0.058,-0.6446 c 0.381,0.2051 0.938,0.3516 1.495,0.3516 1.612,0 1.758,-1.1722 1.758,-2.63735 h -0.029 c -0.352,0.7326 -0.908,0.99633 -1.553,0.99633 -1.641,0 -2.169,-1.43589 -2.169,-2.54945 0,-1.55311 0.616,-2.66666 2.11,-2.66666 0.674,0 1.114,0.08791 1.583,0.70329 h 0.029 V 4.53738 h 0.645 v 4.71795"
     fill="#ffffff"
     id="path44"
     style="opacity:0.8;fill:#000000" />
  <path
     d="m 142.886,6.76423 c 0,-0.87912 -0.352,-1.78755 -1.29,-1.78755 -0.937,0 -1.494,0.93773 -1.494,1.78755 z m 0.293,2.75458 c -0.44,0.17582 -1.026,0.29304 -1.495,0.29304 -1.699,0 -2.315,-1.14286 -2.315,-2.66667 0,-1.55311 0.85,-2.66666 2.139,-2.66666 1.436,0 2.022,1.17216 2.022,2.52014 v 0.32235 h -3.458 c 0,1.08425 0.587,1.96337 1.671,1.96337 0.469,0 1.143,-0.17583 1.436,-0.38096 z"
     fill="#ffffff"
     id="path46"
     style="opacity:0.8;fill:#000000" />
  <path
     d="m 145.553,5.76839 c 0,-0.38095 0,-0.79121 -0.03,-1.20147 h 0.616 v 0.90843 h 0.029 c 0.205,-0.46887 0.586,-1.02564 1.641,-1.02564 1.26,0 1.729,0.84981 1.729,1.96337 v 3.25274 h -0.645 V 6.5596 c 0,-0.96704 -0.351,-1.58242 -1.201,-1.58242 -1.143,0 -1.524,1.02564 -1.524,1.87546 v 2.81318 h -0.645 V 5.76839"
     fill="#ffffff"
     id="path48"
     style="opacity:0.8;fill:#000000" />
  <path
     d="m 153.905,9.25581 c 1.113,0 1.699,-0.93773 1.699,-2.13919 0,-1.17216 -0.586,-2.1392 -1.699,-2.1392 -1.114,0 -1.7,0.93773 -1.7,2.1392 0,1.17216 0.586,2.13919 1.7,2.13919 z m 0,-4.80586 c 1.641,0 2.373,1.28938 2.373,2.66667 0,1.40659 -0.732,2.66666 -2.373,2.66666 -1.641,0 -2.374,-1.28937 -2.374,-2.66666 -0.029,-1.37729 0.703,-2.66667 2.374,-2.66667 z"
     fill="#ffffff"
     id="path50"
     style="opacity:0.8;fill:#000000" />
  <path
     d="m 157.86,8.93322 c 0.381,0.17583 0.85,0.32235 1.319,0.32235 0.615,0 1.143,-0.32235 1.143,-0.90843 0,-1.20146 -2.462,-1.02564 -2.462,-2.49084 0,-1.02564 0.821,-1.40659 1.671,-1.40659 0.263,0 0.82,0.05861 1.26,0.23443 l -0.059,0.55678 c -0.322,-0.14652 -0.791,-0.23444 -1.143,-0.23444 -0.644,0 -1.113,0.20513 -1.113,0.84982 0,0.93773 2.52,0.82051 2.52,2.49084 0,1.08425 -1.026,1.46521 -1.788,1.46521 -0.498,0 -0.967,-0.05861 -1.436,-0.23444 z"
     fill="#ffffff"
     id="path52"
     style="opacity:0.8;fill:#000000" />
  <path
     d="m 162.549,8.93347 c 0.381,0.17582 0.85,0.32234 1.319,0.32234 0.615,0 1.142,-0.32234 1.142,-0.90842 0,-1.20147 -2.461,-1.02564 -2.461,-2.49085 0,-1.02564 0.82,-1.40659 1.67,-1.40659 0.264,0 0.821,0.05861 1.26,0.23443 l -0.058,0.55678 c -0.323,-0.14652 -0.792,-0.23443 -1.143,-0.23443 -0.645,0 -1.114,0.20513 -1.114,0.84981 0,0.93773 2.52,0.82052 2.52,2.49085 0,1.08425 -1.025,1.4652 -1.787,1.4652 -0.498,0 -0.967,-0.05861 -1.436,-0.23443 z"
     fill="#ffffff"
     id="path54"
     style="opacity:0.8;fill:#000000" />
  <path
     d="m 170.725,6.76447 c 0,-0.87912 -0.351,-1.78754 -1.289,-1.78754 -0.938,0 -1.494,0.93773 -1.494,1.78754 z m 0.323,2.75458 c -0.44,0.17583 -0.997,0.29304 -1.495,0.29304 -1.699,0 -2.315,-1.14285 -2.315,-2.66666 0,-1.55312 0.85,-2.66667 2.139,-2.66667 1.436,0 2.022,1.17216 2.022,2.52015 v 0.32234 h -3.487 c 0,1.08425 0.586,1.96337 1.671,1.96337 0.468,0 1.142,-0.17582 1.435,-0.38095 v 0.61538"
     fill="#ffffff"
     id="path56"
     style="opacity:0.8;fill:#000000" />
  <path
     d="m 173.392,5.76839 c 0,-0.38095 0,-0.79121 -0.03,-1.20147 h 0.616 v 0.90843 h 0.029 c 0.205,-0.46887 0.586,-1.02564 1.641,-1.02564 1.26,0 1.729,0.84981 1.729,1.96337 v 3.25274 h -0.645 V 6.5596 c 0,-0.96704 -0.351,-1.58242 -1.201,-1.58242 -1.143,0 -1.524,1.02564 -1.524,1.87546 v 2.81318 h -0.645 V 5.76839"
     fill="#ffffff"
     id="path58"
     style="opacity:0.8;fill:#000000" />
  <path
     d="m 179.37,8.93322 c 0.381,0.17583 0.85,0.32235 1.319,0.32235 0.615,0 1.143,-0.32235 1.143,-0.90843 0,-1.20146 -2.462,-1.02564 -2.462,-2.49084 0,-1.02564 0.821,-1.40659 1.67,-1.40659 0.264,0 0.821,0.05861 1.261,0.23443 l -0.059,0.55678 c -0.322,-0.14652 -0.791,-0.23444 -1.143,-0.23444 -0.645,0 -1.113,0.20513 -1.113,0.84982 0,0.93773 2.52,0.82051 2.52,2.49084 0,1.08425 -1.026,1.46521 -1.788,1.46521 -0.498,0 -0.996,-0.05861 -1.436,-0.23444 z"
     fill="#ffffff"
     id="path60"
     style="opacity:0.8;fill:#000000" />
  <path
     d="m 187.751,5.24092 c -0.352,-0.14652 -0.762,-0.26374 -1.084,-0.26374 -1.231,0 -1.934,0.87912 -1.934,2.13919 0,1.17216 0.703,2.1392 1.846,2.1392 0.41,0 0.762,-0.08791 1.143,-0.23443 l 0.058,0.58608 c -0.439,0.14652 -0.82,0.17582 -1.318,0.17582 -1.641,0 -2.433,-1.26007 -2.433,-2.66667 0,-1.58241 1.026,-2.66666 2.52,-2.66666 0.616,0 1.055,0.14652 1.231,0.20513 z"
     fill="#ffffff"
     id="path62"
     style="opacity:0.8;fill:#000000" />
  <path
     d="m 189.655,2.16333 h 0.645 v 3.25275 h 0.029 c 0.264,-0.55678 0.85,-0.99634 1.583,-0.99634 1.377,0 1.758,0.90842 1.758,2.1685 v 3.04762 h -0.645 V 6.61754 c 0,-0.87912 -0.176,-1.64102 -1.201,-1.64102 -1.114,0 -1.524,1.05494 -1.524,1.96337 v 2.72527 h -0.645 z"
     fill="#ffffff"
     id="path64"
     style="opacity:0.8;fill:#000000" />
  <path
     d="m 198.887,7.08683 h -0.176 c -1.085,0 -2.403,0.11722 -2.403,1.23077 0,0.674 0.469,0.90843 1.055,0.90843 1.494,0 1.524,-1.28938 1.524,-1.84616 z m 0.058,1.75824 c -0.293,0.61539 -1.025,0.93773 -1.641,0.93773 -1.465,0 -1.67,-0.99633 -1.67,-1.43589 0,-1.69964 1.817,-1.78755 3.135,-1.78755 h 0.118 V 6.29562 c 0,-0.87912 -0.323,-1.31868 -1.173,-1.31868 -0.527,0 -1.025,0.11722 -1.494,0.41026 V 4.77181 c 0.381,-0.17582 1.055,-0.35164 1.494,-0.35164 1.26,0 1.788,0.55677 1.788,1.90476 v 2.25641 c 0,0.41025 0,0.7326 0.059,1.08425 h -0.616 z"
     fill="#ffffff"
     id="path66"
     style="opacity:0.8;fill:#000000" />
  <path
     d="m 202.227,5.09401 h -1.026 V 4.56654 h 1.026 V 4.18559 c 0,-1.08425 0.029,-2.1685 1.348,-2.1685 0.205,0 0.469,0.0293 0.586,0.08791 l -0.029,0.58608 c -0.118,-0.05861 -0.323,-0.11721 -0.499,-0.11721 -0.849,0 -0.761,0.93773 -0.761,1.55311 v 0.43956 h 1.142 v 0.52747 h -1.142 v 4.57143 h -0.645 z"
     fill="#ffffff"
     id="path68"
     style="opacity:0.8;fill:#000000" />
  <path
     d="m 208.117,5.09375 h -1.172 V 8.4051 c 0,0.46887 0.176,0.84982 0.674,0.84982 0.234,0 0.41,-0.05861 0.586,-0.11722 l 0.029,0.52748 c -0.146,0.0586 -0.469,0.14652 -0.762,0.14652 -1.113,0 -1.172,-0.76191 -1.172,-1.69964 V 5.09375 h -0.996 V 4.56628 H 206.3 V 3.33551 l 0.645,-0.23444 v 1.46521 h 1.172 z"
     fill="#ffffff"
     id="path70"
     style="opacity:0.8;fill:#000000" />
  <path
     d="M 44.8352,17.2844 C 44.3957,17.05 43.751,16.9913 43.2821,16.9913 c -1.8168,0 -2.8425,1.2894 -2.8425,3.0184 0,1.7582 0.9964,3.0183 2.8425,3.0183 0.4689,0 1.1722,-0.0586 1.5531,-0.2931 l 0.0293,0.6154 c -0.3809,0.2345 -1.1721,0.2931 -1.6117,0.2931 -2.1978,0 -3.5165,-1.4652 -3.5165,-3.6044 0,-2.1099 1.348,-3.6044 3.5165,-3.6044 0.4103,0 1.2308,0.0586 1.6117,0.2637 z"
     fill="#ffffff"
     id="path72"
     style="opacity:0.8;fill:#000000" />
  <path
     d="m 49.1725,23.0573 c 1.1135,0 1.6996,-0.9377 1.6996,-2.1392 0,-1.1721 -0.5861,-2.1392 -1.6996,-2.1392 -1.1136,0 -1.6997,0.9378 -1.6997,2.1392 0.0293,1.2015 0.6154,2.1392 1.6997,2.1392 z m 0,-4.8058 c 1.641,0 2.3736,1.2893 2.3736,2.6666 0,1.4066 -0.7326,2.6667 -2.3736,2.6667 -1.6411,0 -2.3737,-1.2894 -2.3737,-2.6667 0,-1.3773 0.7326,-2.6666 2.3737,-2.6666 z"
     fill="#ffffff"
     id="path74"
     style="opacity:0.8;fill:#000000" />
  <path
     d="m 53.5381,19.5997 c 0,-0.381 0,-0.7912 -0.0293,-1.2015 h 0.6154 v 0.9084 h 0.0293 c 0.2051,-0.4688 0.5861,-1.0256 1.641,-1.0256 1.2601,0 1.7289,0.8498 1.7289,1.9634 v 3.2527 h -0.6446 v -3.1062 c 0,-0.967 -0.3517,-1.5824 -1.2015,-1.5824 -1.1429,0 -1.5238,1.0256 -1.5238,1.8754 v 2.8132 h -0.6447 v -3.8974"
     fill="#ffffff"
     id="path76"
     style="opacity:0.8;fill:#000000" />
  <path
     d="m 60.3372,18.9258 h -1.0257 v -0.5275 h 1.0257 v -0.3809 c 0,-1.0843 0.0293,-2.1685 1.348,-2.1685 0.2051,0 0.4688,0.0293 0.586,0.0879 l -0.0293,0.5568 c -0.1172,-0.0586 -0.3223,-0.1173 -0.4981,-0.1173 -0.8499,0 -0.7619,0.9378 -0.7619,1.5532 v 0.4395 h 1.1428 v 0.5275 h -1.1721 v 4.6007 h -0.6447 v -4.5714"
     fill="#ffffff"
     id="path78"
     style="opacity:0.8;fill:#000000" />
  <path
     d="m 66.0807,16.4053 h 0.7912 l -1.2601,1.4359 h -0.4689 z m 1.0549,4.1611 c 0,-0.8791 -0.3516,-1.7875 -1.2894,-1.7875 -0.9377,0 -1.4945,0.9377 -1.4945,1.7875 z m 0.2931,2.7546 c -0.4396,0.1758 -1.0257,0.2931 -1.4945,0.2931 -1.6997,0 -2.3151,-1.1429 -2.3151,-2.6667 0,-1.5531 0.8499,-2.6667 2.1685,-2.6667 1.4359,0 2.022,1.1722 2.022,2.5202 v 0.3223 h -3.4872 c 0,1.0843 0.5861,1.9634 1.6704,1.9634 0.4688,0 1.1428,-0.1758 1.4359,-0.381 z"
     fill="#ffffff"
     id="path80"
     style="opacity:0.8;fill:#000000" />
  <path
     d="m 71.7066,23.0572 c 1.1135,0 1.5238,-1.2015 1.5238,-2.1392 0,-0.9378 -0.3809,-2.1392 -1.5238,-2.1392 -1.2015,0 -1.5238,1.1428 -1.5238,2.1392 0,1.0256 0.3223,2.1392 1.5238,2.1392 z m 2.1392,0.4395 h -0.6447 v -0.8205 h -0.0293 c -0.3517,0.6447 -0.8498,0.9377 -1.5824,0.9377 -1.4066,0 -2.1099,-1.1721 -2.1099,-2.6666 0,-1.5532 0.6154,-2.6667 2.1099,-2.6667 0.9963,0 1.4945,0.7326 1.5824,0.9963 h 0.0293 v -3.3113 h 0.6447 z"
     fill="#ffffff"
     id="path82"
     style="opacity:0.8;fill:#000000" />
  <path
     d="m 78.2125,16.4053 h 0.7912 l -1.2601,1.4359 h -0.4688 z m 1.055,4.1611 c 0,-0.8791 -0.3517,-1.7875 -1.2894,-1.7875 -0.9378,0 -1.4945,0.9377 -1.4945,1.7875 z m 0.3223,2.7546 c -0.4396,0.1758 -1.0256,0.2931 -1.4945,0.2931 -1.6996,0 -2.315,-1.1429 -2.315,-2.6667 0,-1.5531 0.8498,-2.6667 2.1685,-2.6667 1.4359,0 2.0219,1.1722 2.0219,2.5202 v 0.3223 h -3.4871 c 0,1.0843 0.5861,1.9634 1.6703,1.9634 0.4689,0 1.1429,-0.1758 1.4359,-0.381 z"
     fill="#ffffff"
     id="path84"
     style="opacity:0.8;fill:#000000" />
  <path
     d="m 81.9336,19.5118 c 0,-0.5568 0,-0.7619 -0.0293,-1.1429 h 0.6447 v 0.9964 h 0.0293 c 0.2344,-0.5568 0.674,-1.1136 1.3187,-1.1136 0.1465,0 0.3223,0.0293 0.4395,0.0586 v 0.674 c -0.1172,-0.0293 -0.293,-0.0586 -0.4688,-0.0586 -0.9964,0 -1.2601,1.1136 -1.2601,2.0513 v 2.5201 h -0.6447 v -3.9853"
     fill="#ffffff"
     id="path86"
     style="opacity:0.8;fill:#000000" />
  <path
     d="m 88.9373,20.9184 h -0.1758 c -1.0843,0 -2.4029,0.1172 -2.4029,1.2307 0,0.674 0.4688,0.9085 1.0549,0.9085 1.4945,0 1.5238,-1.2894 1.5238,-1.8462 z m 0.0586,1.7582 c -0.293,0.6154 -1.0256,0.9377 -1.641,0.9377 -1.4652,0 -1.6703,-0.9963 -1.6703,-1.4359 0,-1.6996 1.8168,-1.7875 3.1355,-1.7875 h 0.1172 v -0.2637 c 0,-0.8792 -0.3223,-1.3187 -1.1721,-1.3187 -0.5275,0 -1.0257,0.1172 -1.4945,0.4102 v -0.6153 c 0.3809,-0.1759 1.0549,-0.3517 1.4945,-0.3517 1.26,0 1.7875,0.5568 1.7875,1.9048 v 2.2564 c 0,0.4102 0,0.7326 0.0586,1.0842 h -0.6154 z"
     fill="#ffffff"
     id="path88"
     style="opacity:0.8;fill:#000000" />
  <path
     d="M 94.0661,18.9255 H 92.894 v 3.3114 c 0,0.4689 0.1758,0.8498 0.6739,0.8498 0.2345,0 0.4103,-0.0586 0.5861,-0.1172 l 0.0293,0.5275 c -0.1465,0.0586 -0.4688,0.1465 -0.7619,0.1465 -1.1135,0 -1.1721,-0.7619 -1.1721,-1.6997 v -3.0183 h -0.9964 v -0.5274 h 0.9964 v -1.2308 l 0.6447,-0.2344 v 1.4652 h 1.1721 z"
     fill="#ffffff"
     id="path90"
     style="opacity:0.8;fill:#000000" />
  <path
     d="m 95.9707,18.3689 h 0.6447 v 5.1282 h -0.6447 z m 0.6447,-1.3479 h -0.6447 v -0.8499 h 0.6447 z"
     fill="#ffffff"
     id="path92"
     style="opacity:0.8;fill:#000000" />
  <path
     d="m 100.982,23.0576 c 1.113,0 1.7,-0.9378 1.7,-2.1392 0,-1.1722 -0.587,-2.1392 -1.7,-2.1392 -1.1137,0 -1.6997,0.9377 -1.6997,2.1392 0,1.2014 0.586,2.1392 1.6997,2.1392 z m 0,-4.8059 c 1.641,0 2.374,1.2894 2.374,2.6667 0,1.4066 -0.733,2.6666 -2.374,2.6666 -1.6411,0 -2.3737,-1.2893 -2.3737,-2.6666 -0.0293,-1.3773 0.7033,-2.6667 2.3737,-2.6667 z"
     fill="#ffffff"
     id="path94"
     style="opacity:0.8;fill:#000000" />
  <path
     d="m 105.318,19.5994 c 0,-0.3809 0,-0.7912 -0.029,-1.2014 h 0.615 v 0.9084 h 0.03 c 0.205,-0.4689 0.586,-1.0256 1.641,-1.0256 1.26,0 1.729,0.8498 1.729,1.9633 v 3.2528 h -0.645 v -3.1062 c 0,-0.9671 -0.352,-1.5825 -1.201,-1.5825 -1.143,0 -1.524,1.0257 -1.524,1.8755 v 2.8132 h -0.645 v -3.8975"
     fill="#ffffff"
     id="path96"
     style="opacity:0.8;fill:#000000" />
  <path
     d="m 114.754,22.7645 c 0.381,0.1758 0.85,0.3224 1.319,0.3224 0.615,0 1.142,-0.3224 1.142,-0.9085 0,-1.2014 -2.461,-1.0256 -2.461,-2.4908 0,-1.0256 0.82,-1.4066 1.67,-1.4066 0.264,0 0.821,0.0586 1.26,0.2344 l -0.058,0.5568 c -0.323,-0.1465 -0.791,-0.2344 -1.143,-0.2344 -0.645,0 -1.114,0.2051 -1.114,0.8498 0,0.9377 2.52,0.8205 2.52,2.4908 0,1.0843 -1.025,1.4652 -1.787,1.4652 -0.498,0 -0.996,-0.0586 -1.436,-0.2344 z"
     fill="#ffffff"
     id="path98"
     style="opacity:0.8;fill:#000000" />
  <path
     d="m 123.81,22.2951 c 0,0.381 0,0.7913 0.029,1.2015 h -0.616 v -0.9084 h -0.029 c -0.205,0.4689 -0.586,1.0256 -1.641,1.0256 -1.26,0 -1.729,-0.8498 -1.729,-1.9633 v -3.2821 h 0.645 v 3.1062 c 0,0.9671 0.352,1.5825 1.201,1.5825 1.143,0 1.524,-1.0257 1.524,-1.8755 v -2.8132 h 0.645 v 3.9267"
     fill="#ffffff"
     id="path100"
     style="opacity:0.8;fill:#000000" />
  <path
     d="m 126.183,18.3692 h 0.644 v 5.1282 h -0.644 z m 0.615,-1.348 h -0.645 v -0.8498 h 0.645 z"
     fill="#ffffff"
     id="path102"
     style="opacity:0.8;fill:#000000" />
  <path
     d="m 128.791,22.7643 c 0.381,0.1758 0.85,0.3223 1.319,0.3223 0.615,0 1.143,-0.3223 1.143,-0.9084 0,-1.2015 -2.462,-1.0256 -2.462,-2.4908 0,-1.0257 0.821,-1.4066 1.67,-1.4066 0.264,0 0.821,0.0586 1.26,0.2344 l -0.058,0.5568 c -0.323,-0.1465 -0.791,-0.2345 -1.143,-0.2345 -0.645,0 -1.114,0.2052 -1.114,0.8499 0,0.9377 2.521,0.8205 2.521,2.4908 0,1.0842 -1.026,1.4652 -1.788,1.4652 -0.498,0 -0.996,-0.0586 -1.436,-0.2344 z"
     fill="#ffffff"
     id="path104"
     style="opacity:0.8;fill:#000000" />
  <path
     d="m 133.48,22.7643 c 0.38,0.1758 0.849,0.3223 1.347,0.3223 0.616,0 1.143,-0.3223 1.143,-0.9084 0,-1.2015 -2.461,-1.0256 -2.461,-2.4908 0,-1.0257 0.82,-1.4066 1.67,-1.4066 0.264,0 0.821,0.0586 1.26,0.2344 l -0.058,0.5568 c -0.323,-0.1465 -0.792,-0.2345 -1.143,-0.2345 -0.645,0 -1.114,0.2052 -1.114,0.8499 0,0.9377 2.52,0.8205 2.52,2.4908 0,1.0842 -1.025,1.4652 -1.787,1.4652 -0.498,0 -0.997,-0.0586 -1.436,-0.2344 z"
     fill="#ffffff"
     id="path106"
     style="opacity:0.8;fill:#000000" />
  <path
     d="m 141.655,20.5667 c 0,-0.8791 -0.351,-1.7875 -1.289,-1.7875 -0.938,0 -1.495,0.9377 -1.495,1.7875 z m 0.322,2.7546 c -0.439,0.1758 -1.025,0.293 -1.494,0.293 -1.7,0 -2.315,-1.1428 -2.315,-2.6666 0,-1.5531 0.85,-2.6667 2.139,-2.6667 1.436,0 2.022,1.1722 2.022,2.5202 v 0.3223 h -3.487 c 0,1.0842 0.586,1.9634 1.67,1.9634 0.469,0 1.143,-0.1759 1.436,-0.381 v 0.6154"
     fill="#ffffff"
     id="path108"
     style="opacity:0.8;fill:#000000" />
  <path
     d="m 44.8352,31.0866 c -0.4395,-0.2344 -1.0842,-0.293 -1.5531,-0.293 -1.8168,0 -2.8425,1.2894 -2.8425,3.0183 0,1.7582 0.9964,3.0183 2.8425,3.0183 0.4689,0 1.1722,-0.0586 1.5531,-0.293 l 0.0293,0.6154 c -0.3809,0.2344 -1.1721,0.293 -1.6117,0.293 -2.1978,0 -3.5165,-1.4652 -3.5165,-3.6044 0,-2.1099 1.348,-3.6044 3.5165,-3.6044 0.4103,0 1.2308,0.0586 1.6117,0.2638 z"
     fill="#ffffff"
     id="path110"
     style="opacity:0.8;fill:#000000" />
  <path
     d="m 49.1725,36.8891 c 1.1135,0 1.6996,-0.9377 1.6996,-2.1392 0,-1.1721 -0.5861,-2.1392 -1.6996,-2.1392 -1.1136,0 -1.6997,0.9378 -1.6997,2.1392 0.0293,1.2015 0.6154,2.1392 1.6997,2.1392 z m 0,-4.8058 c 1.641,0 2.3736,1.2893 2.3736,2.6666 0,1.4066 -0.7326,2.6667 -2.3736,2.6667 -1.6411,0 -2.3737,-1.2894 -2.3737,-2.6667 0,-1.3773 0.7326,-2.6666 2.3737,-2.6666 z"
     fill="#ffffff"
     id="path112"
     style="opacity:0.8;fill:#000000" />
  <path
     d="m 53.5381,33.4019 c 0,-0.3809 0,-0.7912 -0.0293,-1.2014 h 0.6154 v 0.9084 h 0.0293 c 0.2051,-0.4689 0.5861,-1.0256 1.641,-1.0256 1.2601,0 1.7289,0.8498 1.7289,1.9633 v 3.2528 h -0.6446 v -3.1063 c 0,-0.967 -0.3517,-1.5824 -1.2015,-1.5824 -1.1429,0 -1.5238,1.0257 -1.5238,1.8755 v 2.8132 h -0.6447 v -3.8975"
     fill="#ffffff"
     id="path114"
     style="opacity:0.8;fill:#000000" />
  <path
     d="m 60.3372,32.7276 h -1.0257 v -0.5275 h 1.0257 v -0.381 c 0,-1.0842 0.0293,-2.1685 1.348,-2.1685 0.2051,0 0.4688,0.0293 0.586,0.0879 l -0.0293,0.5568 c -0.1172,-0.0586 -0.3223,-0.1172 -0.4981,-0.1172 -0.8499,0 -0.7619,0.9377 -0.7619,1.5531 v 0.4396 h 1.1428 v 0.5275 h -1.1721 v 4.5714 h -0.6447 v -4.5421"
     fill="#ffffff"
     id="path116"
     style="opacity:0.8;fill:#000000" />
  <path
     d="m 67.1356,34.3978 c 0,-0.8791 -0.3516,-1.7876 -1.2894,-1.7876 -0.9377,0 -1.4945,0.9378 -1.4945,1.7876 z m 0.2931,2.7546 c -0.4396,0.1758 -1.0257,0.293 -1.4945,0.293 -1.6997,0 -2.3151,-1.1429 -2.3151,-2.6667 0,-1.5531 0.8499,-2.6666 2.1685,-2.6666 1.4359,0 2.022,1.1721 2.022,2.5201 v 0.3224 h -3.4872 c 0,1.0842 0.5861,1.9633 1.6704,1.9633 0.4688,0 1.1428,-0.1758 1.4359,-0.3809 z"
     fill="#ffffff"
     id="path118"
     style="opacity:0.8;fill:#000000" />
  <path
     d="m 71.7066,36.8887 c 1.1135,0 1.5238,-1.2015 1.5238,-2.1392 0,-0.9377 -0.3809,-2.1392 -1.5238,-2.1392 -1.2015,0 -1.5238,1.1429 -1.5238,2.1392 0,0.9963 0.3223,2.1392 1.5238,2.1392 z m 2.1392,0.4102 h -0.6447 v -0.8205 h -0.0293 c -0.3517,0.6447 -0.8498,0.9378 -1.5824,0.9378 -1.4066,0 -2.1099,-1.1722 -2.1099,-2.6667 0,-1.5531 0.6154,-2.6667 2.1099,-2.6667 0.9963,0 1.4945,0.7326 1.5824,0.9964 h 0.0293 v -3.2528 h 0.6447 z"
     fill="#ffffff"
     id="path120"
     style="opacity:0.8;fill:#000000" />
  <path
     d="m 79.2675,34.3978 c 0,-0.8791 -0.3517,-1.7876 -1.2894,-1.7876 -0.9378,0 -1.4945,0.9378 -1.4945,1.7876 z m 0.3223,2.7546 c -0.4396,0.1758 -1.0256,0.293 -1.4945,0.293 -1.6996,0 -2.315,-1.1429 -2.315,-2.6667 0,-1.5531 0.8498,-2.6666 2.1685,-2.6666 1.4359,0 2.0219,1.1721 2.0219,2.5201 v 0.3224 h -3.4871 c 0,1.0842 0.5861,1.9633 1.6703,1.9633 0.4689,0 1.1429,-0.1758 1.4359,-0.3809 z"
     fill="#ffffff"
     id="path122"
     style="opacity:0.8;fill:#000000" />
  <path
     d="m 81.9336,33.3433 c 0,-0.5568 0,-0.7619 -0.0293,-1.1428 h 0.6447 v 0.9963 h 0.0293 c 0.2344,-0.5568 0.674,-1.1135 1.3187,-1.1135 0.1465,0 0.3223,0.0293 0.4395,0.0586 v 0.674 c -0.1172,-0.0294 -0.293,-0.0587 -0.4688,-0.0587 -0.9964,0 -1.2601,1.1136 -1.2601,2.0513 v 2.5202 h -0.6447 v -3.9854"
     fill="#ffffff"
     id="path124"
     style="opacity:0.8;fill:#000000" />
  <path
     d="m 88.9373,34.7499 h -0.1758 c -1.0843,0 -2.4029,0.1172 -2.4029,1.2308 0,0.674 0.4688,0.9084 1.0549,0.9084 1.4945,0 1.5238,-1.2894 1.5238,-1.8461 z m 0.0586,1.729 c -0.293,0.6154 -1.0256,0.9377 -1.641,0.9377 -1.4652,0 -1.6703,-0.9963 -1.6703,-1.4359 0,-1.6996 1.8168,-1.7875 3.1355,-1.7875 h 0.1172 v -0.2638 c 0,-0.8791 -0.3223,-1.3187 -1.1721,-1.3187 -0.5275,0 -1.0257,0.1172 -1.4945,0.4103 v -0.6154 c 0.3809,-0.1758 1.0549,-0.3516 1.4945,-0.3516 1.26,0 1.7875,0.5567 1.7875,1.9047 v 2.2564 c 0,0.4103 0,0.7326 0.0586,1.0843 h -0.6154 z"
     fill="#ffffff"
     id="path126"
     style="opacity:0.8;fill:#000000" />
  <path
     d="m 91.3701,36.7716 3.0769,-4.0439 h -2.9597 v -0.5275 h 3.6923 v 0.5275 l -3.0769,4.0146 h 3.0769 v 0.5275 h -3.8095 z"
     fill="#ffffff"
     id="path128"
     style="opacity:0.8;fill:#000000" />
  <path
     d="m 97.084,32.2002 h 0.6447 v 5.0989 H 97.084 Z m 0.6154,-1.3479 h -0.6447 v -0.8499 h 0.6447 z"
     fill="#ffffff"
     id="path130"
     style="opacity:0.8;fill:#000000" />
  <path
     d="m 102.095,36.8891 c 1.114,0 1.7,-0.9377 1.7,-2.1392 0,-1.1721 -0.586,-2.1392 -1.7,-2.1392 -1.113,0 -1.699,0.9378 -1.699,2.1392 0,1.2015 0.586,2.1392 1.699,2.1392 z m 0,-4.8058 c 1.641,0 2.374,1.2893 2.374,2.6666 0,1.4066 -0.733,2.6667 -2.374,2.6667 -1.641,0 -2.3735,-1.2894 -2.3735,-2.6667 -0.0293,-1.3773 0.7035,-2.6666 2.3735,-2.6666 z"
     fill="#ffffff"
     id="path132"
     style="opacity:0.8;fill:#000000" />
  <path
     d="m 106.432,33.4019 c 0,-0.3809 0,-0.7912 -0.03,-1.2014 h 0.616 v 0.9084 h 0.029 c 0.205,-0.4689 0.586,-1.0256 1.641,-1.0256 1.26,0 1.729,0.8498 1.729,1.9633 v 3.2528 h -0.645 v -3.1063 c 0,-0.967 -0.351,-1.5824 -1.201,-1.5824 -1.143,0 -1.524,1.0257 -1.524,1.8755 v 2.8132 h -0.645 v -3.8975"
     fill="#ffffff"
     id="path134"
     style="opacity:0.8;fill:#000000" />
  <path
     d="m 115.897,34.3978 c 0,-0.8791 -0.351,-1.7876 -1.289,-1.7876 -0.938,0 -1.495,0.9378 -1.495,1.7876 z m 0.323,2.7546 c -0.44,0.1758 -1.026,0.293 -1.495,0.293 -1.699,0 -2.315,-1.1429 -2.315,-2.6667 0,-1.5531 0.85,-2.6666 2.139,-2.6666 1.436,0 2.022,1.1721 2.022,2.5201 v 0.3224 h -3.458 c 0,1.0842 0.587,1.9633 1.671,1.9633 0.469,0 1.143,-0.1758 1.436,-0.3809 z"
     fill="#ffffff"
     id="path136"
     style="opacity:0.8;fill:#000000" />
  <path
     d="m 121.934,36.42 c 0.41,0.2637 0.879,0.4102 1.553,0.4102 0.85,0 1.582,-0.4395 1.582,-1.4359 0,-1.3773 -3.194,-1.5531 -3.194,-3.3699 0,-1.1136 0.996,-1.8169 2.227,-1.8169 0.352,0 0.879,0.0586 1.377,0.2345 l -0.117,0.6446 c -0.322,-0.1758 -0.791,-0.2637 -1.26,-0.2637 -0.732,0 -1.524,0.293 -1.524,1.2015 0,1.4066 3.194,1.4066 3.194,3.4578 0,1.4066 -1.201,1.9634 -2.285,1.9634 -0.674,0 -1.202,-0.1465 -1.583,-0.293 z"
     fill="#ffffff"
     id="path138"
     style="opacity:0.8;fill:#000000" />
  <path
     d="m 129.612,37.2989 h -0.733 L 127.15,32.2 h 0.704 l 1.406,4.4249 h 0.03 L 130.784,32.2 h 0.674 z"
     fill="#ffffff"
     id="path140"
     style="opacity:0.8;fill:#000000" />
  <path
     d="m 133.069,32.2005 h 0.645 v 5.0989 h -0.645 z m 0.616,-1.348 h -0.645 v -0.8498 h 0.645 z"
     fill="#ffffff"
     id="path142"
     style="opacity:0.8;fill:#000000" />
  <path
     d="m 135.59,36.7716 3.077,-4.0439 h -2.96 v -0.5275 h 3.692 v 0.5275 l -3.077,4.0146 h 3.077 v 0.5275 h -3.809 z"
     fill="#ffffff"
     id="path144"
     style="opacity:0.8;fill:#000000" />
  <path
     d="m 140.835,36.7714 3.077,-4.044 h -2.96 V 32.2 h 3.692 v 0.5274 l -3.076,4.0147 h 3.076 v 0.5274 h -3.809 z"
     fill="#ffffff"
     id="path146"
     style="opacity:0.8;fill:#000000" />
  <path
     d="m 149.656,34.3978 c 0,-0.8791 -0.352,-1.7876 -1.289,-1.7876 -0.938,0 -1.495,0.9378 -1.495,1.7876 z m 0.293,2.7546 c -0.439,0.1758 -0.996,0.293 -1.494,0.293 -1.7,0 -2.315,-1.1429 -2.315,-2.6667 0,-1.5531 0.849,-2.6666 2.139,-2.6666 1.436,0 2.022,1.1721 2.022,2.5201 v 0.3224 h -3.487 c 0,1.0842 0.586,1.9633 1.67,1.9633 0.469,0 1.143,-0.1758 1.436,-0.3809 v 0.6154"
     fill="#ffffff"
     id="path148"
     style="opacity:0.8;fill:#000000" />
  <path
     d="m 152.322,33.3433 c 0,-0.5568 0,-0.7619 -0.029,-1.1428 h 0.645 v 0.9963 h 0.029 c 0.234,-0.5568 0.674,-1.1135 1.319,-1.1135 0.146,0 0.322,0.0293 0.439,0.0586 v 0.674 c -0.117,-0.0294 -0.293,-0.0587 -0.469,-0.0587 -0.996,0 -1.26,1.1136 -1.26,2.0513 v 2.5202 h -0.644 v -3.9854"
     fill="#ffffff"
     id="path150"
     style="opacity:0.8;fill:#000000" />
  <path
     d="m 159.326,34.7497 h -0.205 c -1.084,0 -2.403,0.1172 -2.403,1.2308 0,0.6739 0.469,0.9084 1.055,0.9084 1.494,0 1.524,-1.2894 1.524,-1.8462 v -0.293 z m 0.059,1.7289 c -0.293,0.6154 -1.026,0.9377 -1.641,0.9377 -1.466,0 -1.671,-0.9963 -1.671,-1.4358 0,-1.6997 1.817,-1.7876 3.136,-1.7876 h 0.117 v -0.2637 c 0,-0.8792 -0.322,-1.3187 -1.172,-1.3187 -0.528,0 -1.026,0.1172 -1.495,0.4102 v -0.6153 c 0.381,-0.1759 1.055,-0.3517 1.495,-0.3517 1.26,0 1.787,0.5568 1.787,1.9048 v 2.2564 c 0,0.4102 0,0.7326 0.059,1.0842 h -0.615 z"
     fill="#ffffff"
     id="path152"
     style="opacity:0.8;fill:#000000" />
  <path
     d="m 44.8352,44.9179 c -0.4395,-0.2344 -1.0842,-0.293 -1.5531,-0.293 -1.8168,0 -2.8425,1.2894 -2.8425,3.0183 0,1.7582 0.9964,3.0183 2.8425,3.0183 0.4689,0 1.1722,-0.0586 1.5531,-0.293 l 0.0293,0.6154 c -0.3809,0.2344 -1.1721,0.293 -1.6117,0.293 -2.1978,0 -3.5165,-1.4652 -3.5165,-3.6044 0,-2.1099 1.348,-3.6044 3.5165,-3.6044 0.4103,0 1.2308,0.0586 1.6117,0.2638 z"
     fill="#ffffff"
     id="path154"
     style="opacity:0.8;fill:#000000" />
  <path
     d="m 49.1725,50.7207 c 1.1135,0 1.6996,-0.9378 1.6996,-2.1392 0,-1.1722 -0.5861,-2.1392 -1.6996,-2.1392 -1.1136,0 -1.6997,0.9377 -1.6997,2.1392 0.0293,1.1721 0.6154,2.1392 1.6997,2.1392 z m 0,-4.8352 c 1.641,0 2.3736,1.2894 2.3736,2.6667 0,1.4066 -0.7326,2.6666 -2.3736,2.6666 -1.6411,0 -2.3737,-1.2893 -2.3737,-2.6666 0,-1.3773 0.7326,-2.6667 2.3737,-2.6667 z"
     fill="#ffffff"
     id="path156"
     style="opacity:0.8;fill:#000000" />
  <path
     d="m 53.5381,47.233 c 0,-0.381 0,-0.7912 -0.0293,-1.2015 h 0.6154 v 0.9084 h 0.0293 c 0.2051,-0.4688 0.5861,-1.0256 1.641,-1.0256 1.2601,0 1.7289,0.8498 1.7289,1.9634 v 3.2527 h -0.6446 v -3.1062 c 0,-0.967 -0.3517,-1.5824 -1.2015,-1.5824 -1.1429,0 -1.5238,1.0256 -1.5238,1.8754 v 2.8132 H 53.5088 V 47.233"
     fill="#ffffff"
     id="path158"
     style="opacity:0.8;fill:#000000" />
  <path
     d="m 60.3372,46.5591 h -1.0257 v -0.5275 h 1.0257 v -0.3809 c 0,-1.0843 0.0293,-2.1685 1.348,-2.1685 0.2051,0 0.4688,0.0293 0.586,0.0879 l -0.0293,0.5568 c -0.1172,-0.0586 -0.3223,-0.1172 -0.4981,-0.1172 -0.8499,0 -0.7619,0.9377 -0.7619,1.5531 v 0.4395 h 1.1428 v 0.5275 h -1.1721 v 4.5714 h -0.6447 v -4.5421"
     fill="#ffffff"
     id="path160"
     style="opacity:0.8;fill:#000000" />
  <path
     d="m 67.1356,48.2 c 0,-0.8791 -0.3516,-1.7875 -1.2894,-1.7875 -0.9377,0 -1.4945,0.9377 -1.4945,1.7875 z m 0.2931,2.7546 c -0.4396,0.1758 -1.0257,0.293 -1.4945,0.293 -1.6997,0 -2.3151,-1.1428 -2.3151,-2.6666 0,-1.5531 0.8499,-2.6667 2.1685,-2.6667 1.4359,0 2.022,1.1722 2.022,2.5202 v 0.3223 h -3.4872 c 0,1.0842 0.5861,1.9634 1.6704,1.9634 0.4688,0 1.1428,-0.1759 1.4359,-0.381 z"
     fill="#ffffff"
     id="path162"
     style="opacity:0.8;fill:#000000" />
  <path
     d="m 71.7066,50.7207 c 1.1135,0 1.5238,-1.2014 1.5238,-2.1392 0,-0.9377 -0.3809,-2.1392 -1.5238,-2.1392 -1.2015,0 -1.5238,1.1429 -1.5238,2.1392 0,0.9964 0.3223,2.1392 1.5238,2.1392 z m 2.1392,0.4103 h -0.6447 v -0.8205 h -0.0293 c -0.3517,0.6446 -0.8498,0.9377 -1.5824,0.9377 -1.4066,0 -2.1099,-1.1722 -2.1099,-2.6667 0,-1.5531 0.6154,-2.6666 2.1099,-2.6666 0.9963,0 1.4945,0.7326 1.5824,0.9963 h 0.0293 v -3.2528 h 0.6447 z"
     fill="#ffffff"
     id="path164"
     style="opacity:0.8;fill:#000000" />
  <path
     d="m 79.2675,48.2 c 0,-0.8791 -0.3517,-1.7875 -1.2894,-1.7875 -0.9378,0 -1.4945,0.9377 -1.4945,1.7875 z m 0.3223,2.7546 c -0.4396,0.1758 -1.0256,0.293 -1.4945,0.293 -1.6996,0 -2.315,-1.1428 -2.315,-2.6666 0,-1.5531 0.8498,-2.6667 2.1685,-2.6667 1.4359,0 2.0219,1.1722 2.0219,2.5202 v 0.3223 h -3.4871 c 0,1.0842 0.5861,1.9634 1.6703,1.9634 0.4689,0 1.1429,-0.1759 1.4359,-0.381 z"
     fill="#ffffff"
     id="path166"
     style="opacity:0.8;fill:#000000" />
  <path
     d="m 81.9336,47.1749 c 0,-0.5568 0,-0.7619 -0.0293,-1.1429 h 0.6447 v 0.9671 h 0.0293 c 0.2344,-0.5568 0.674,-1.1136 1.3187,-1.1136 0.1465,0 0.3223,0.0293 0.4395,0.0586 v 0.674 c -0.1172,-0.0293 -0.293,-0.0586 -0.4688,-0.0586 -0.9964,0 -1.2601,1.1135 -1.2601,2.0513 v 2.5201 h -0.6447 v -3.956"
     fill="#ffffff"
     id="path168"
     style="opacity:0.8;fill:#000000" />
  <path
     d="m 88.9373,48.5522 h -0.1758 c -1.0843,0 -2.4029,0.1172 -2.4029,1.2307 0,0.674 0.4688,0.9085 1.0549,0.9085 1.4945,0 1.5238,-1.2894 1.5238,-1.8462 z m 0.0586,1.7582 c -0.293,0.6154 -1.0256,0.9377 -1.641,0.9377 -1.4652,0 -1.6703,-0.9963 -1.6703,-1.4359 0,-1.6996 1.8168,-1.7875 3.1355,-1.7875 h 0.1172 V 47.761 c 0,-0.8792 -0.3223,-1.3187 -1.1721,-1.3187 -0.5275,0 -1.0257,0.1172 -1.4945,0.4102 v -0.6154 c 0.3809,-0.1758 1.0549,-0.3516 1.4945,-0.3516 1.26,0 1.7875,0.5568 1.7875,1.9048 v 2.2564 c 0,0.4102 0,0.7326 0.0586,1.0842 h -0.6154 z"
     fill="#ffffff"
     id="path170"
     style="opacity:0.8;fill:#000000" />
  <path
     d="m 91.3701,50.6032 3.0769,-4.044 h -2.9597 v -0.5275 h 3.6923 v 0.5275 l -3.0769,4.0147 h 3.0769 v 0.5274 h -3.8095 z"
     fill="#ffffff"
     id="path172"
     style="opacity:0.8;fill:#000000" />
  <path
     d="m 97.084,46.0318 h 0.6447 v 5.0989 H 97.084 Z m 0.6154,-1.3773 h -0.6447 v -0.8498 h 0.6447 z"
     fill="#ffffff"
     id="path174"
     style="opacity:0.8;fill:#000000" />
  <path
     d="m 104.088,49.9292 c 0,0.3809 0,0.7912 0.029,1.2014 h -0.615 v -0.9084 h -0.029 c -0.206,0.4689 -0.587,1.0257 -1.642,1.0257 -1.26,0 -1.728,-0.8499 -1.728,-1.9634 v -3.2528 h 0.644 v 3.1063 c 0,0.967 0.352,1.5824 1.202,1.5824 1.143,0 1.524,-1.0257 1.524,-1.8755 v -2.8132 h 0.644 v 3.8975"
     fill="#ffffff"
     id="path176"
     style="opacity:0.8;fill:#000000" />
  <path
     d="m 106.432,47.233 c 0,-0.381 0,-0.7912 -0.03,-1.2015 h 0.616 v 0.9084 h 0.029 c 0.205,-0.4688 0.586,-1.0256 1.641,-1.0256 1.26,0 1.729,0.8498 1.729,1.9634 v 3.2527 h -0.645 v -3.1062 c 0,-0.967 -0.351,-1.5824 -1.201,-1.5824 -1.143,0 -1.524,1.0256 -1.524,1.8754 v 2.8132 h -0.645 V 47.233"
     fill="#ffffff"
     id="path178"
     style="opacity:0.8;fill:#000000" />
  <path
     d="m 115.868,50.3978 c 0.381,0.1758 0.85,0.3224 1.319,0.3224 0.615,0 1.143,-0.3224 1.143,-0.9085 0,-1.2014 -2.462,-1.0256 -2.462,-2.4908 0,-1.0256 0.821,-1.4066 1.671,-1.4066 0.263,0 0.82,0.0586 1.26,0.2344 l -0.059,0.5568 c -0.322,-0.1465 -0.791,-0.2344 -1.143,-0.2344 -0.645,0 -1.113,0.2051 -1.113,0.8498 0,0.9377 2.52,0.8205 2.52,2.4908 0,1.0843 -1.026,1.4652 -1.788,1.4652 -0.498,0 -0.996,-0.0586 -1.436,-0.2344 z"
     fill="#ffffff"
     id="path180"
     style="opacity:0.8;fill:#000000" />
  <path
     d="m 122.696,51.1306 h -0.733 l -1.729,-5.0989 h 0.704 l 1.406,4.4249 h 0.03 l 1.494,-4.4249 h 0.674 z"
     fill="#ffffff"
     id="path182"
     style="opacity:0.8;fill:#000000" />
  <path
     d="m 126.153,46.0318 h 0.645 v 5.0989 h -0.645 z m 0.645,-1.3773 h -0.645 v -0.8498 h 0.645 z"
     fill="#ffffff"
     id="path184"
     style="opacity:0.8;fill:#000000" />
  <path
     d="m 128.703,50.6032 3.077,-4.044 h -2.96 v -0.5275 h 3.693 v 0.5275 l -3.077,4.0147 h 3.077 v 0.5274 h -3.81 z"
     fill="#ffffff"
     id="path186"
     style="opacity:0.8;fill:#000000" />
  <path
     d="m 134.388,47.1749 c 0,-0.5568 0,-0.7619 -0.03,-1.1429 h 0.645 v 0.9671 h 0.029 c 0.235,-0.5568 0.674,-1.1136 1.319,-1.1136 0.147,0 0.322,0.0293 0.44,0.0586 v 0.674 c -0.118,-0.0293 -0.293,-0.0586 -0.469,-0.0586 -0.997,0 -1.26,1.1135 -1.26,2.0513 v 2.5201 h -0.645 v -3.956"
     fill="#ffffff"
     id="path188"
     style="opacity:0.8;fill:#000000" />
  <path
     d="m 141.391,48.5522 h -0.175 c -1.085,0 -2.403,0.1172 -2.403,1.2307 0,0.674 0.469,0.9085 1.055,0.9085 1.494,0 1.523,-1.2894 1.523,-1.8462 z m 0.059,1.7582 c -0.293,0.6154 -1.026,0.9377 -1.641,0.9377 -1.465,0 -1.67,-0.9963 -1.67,-1.4359 0,-1.6996 1.817,-1.7875 3.135,-1.7875 h 0.117 V 47.761 c 0,-0.8792 -0.322,-1.3187 -1.172,-1.3187 -0.527,0 -1.025,0.1172 -1.494,0.4102 v -0.6154 c 0.381,-0.1758 1.055,-0.3516 1.494,-0.3516 1.26,0 1.788,0.5568 1.788,1.9048 v 2.2564 c 0,0.4102 0,0.7326 0.058,1.0842 h -0.615 z"
     fill="#ffffff"
     id="path190"
     style="opacity:0.8;fill:#000000" />
  <path
     d="m 28.3952,2.368 c 0,0 -5.304,-2.3150215 -14.1832,-2.3150215 C 5.36222,0.0529785 0.0581887,2.368 0.0581887,2.368 c 0,0 -0.4981687,10.2857 1.5238113,16.0879 3.54579,10.2271 12.63,13.0989 12.63,13.0989 0,0 9.0843,-2.8718 12.6301,-13.0989 C 28.864,12.6537 28.3952,2.368 28.3952,2.368 Z"
     fill="#ed1c24"
     id="path192"
     style="opacity:0.8" />
  <path
     d="m 23.6482,11.2179 v 5.6557 h -6.6227 v 6.6227 H 11.3698 V 16.9029 H 4.77637 v -5.685 H 11.3698 V 4.62451 h 5.6557 v 6.59339 z"
     fill="#ffffff"
     id="path194"
     style="opacity:1;fill:#ffffff" />
  <path
     d="m 42.1685,78.0899 c -0.7912,0 -1.4652,-0.0879 -2.022,-0.293 l 0.1172,-1.2308 c 0.4982,0.2637 1.0843,0.3809 1.7289,0.3809 0.9964,0 1.4652,-0.3516 1.4652,-1.0256 0,-0.2344 -0.0586,-0.4103 -0.1465,-0.5568 -0.1172,-0.1465 -0.2344,-0.2637 -0.4395,-0.3223 -0.1759,-0.0586 -0.3517,-0.0879 -0.4982,-0.1172 -0.1465,-0.0293 -0.3224,-0.0293 -0.5275,-0.0293 -0.2051,0 -0.3809,0 -0.5275,0.0293 v -1.055 c 0.088,0 0.2052,0 0.3517,0 0.2051,0 0.3809,0 0.5568,-0.0293 0.1758,-0.0293 0.3516,-0.0586 0.5567,-0.1465 0.1759,-0.0586 0.3517,-0.1758 0.4396,-0.3224 0.1172,-0.1465 0.1758,-0.3223 0.1758,-0.5274 0,-0.5861 -0.4395,-0.8791 -1.348,-0.8791 -0.6446,0 -1.2014,0.1172 -1.641,0.3223 L 40.293,71.2034 c 0.674,-0.2051 1.348,-0.3223 1.9927,-0.3223 0.7619,0 1.348,0.1465 1.8168,0.4396 0.4689,0.293 0.674,0.7619 0.674,1.4066 0,0.3809 -0.1172,0.7033 -0.3516,0.967 -0.2345,0.2637 -0.5568,0.4689 -0.9671,0.5568 v 0.0293 c 0.4396,0.0586 0.7912,0.2344 1.055,0.5567 0.2637,0.3224 0.4102,0.674 0.4102,1.0843 0,0.7326 -0.2637,1.2601 -0.7326,1.6117 -0.4981,0.381 -1.1721,0.5568 -2.0219,0.5568 z"
     fill="#ffffff"
     id="path196"
     style="opacity:0.8;fill:#000000" />
  <path
     d="m 47.5024,78.0601 c -0.4982,0 -0.9085,-0.1465 -1.2308,-0.4395 -0.3223,-0.2931 -0.4689,-0.674 -0.4689,-1.1722 0,-0.5275 0.2345,-0.9377 0.674,-1.2308 0.4689,-0.293 1.1136,-0.4395 1.9634,-0.4395 0.2344,0 0.4982,0 0.7326,0.0293 0,-0.381 -0.0879,-0.674 -0.293,-0.8498 -0.2052,-0.1758 -0.4982,-0.2638 -0.9085,-0.2638 -0.5274,0 -1.0549,0.1466 -1.5531,0.4689 l -0.0586,-1.0256 c 0.4982,-0.2638 1.1136,-0.4103 1.8462,-0.4103 1.4945,0 2.2271,0.7033 2.2271,2.0806 0,0.1172 0,0.3809 0,0.7619 0,0.381 0,0.6447 0,0.7619 0,0.5568 0.0293,1.1136 0.0586,1.641 h -1.1722 c 0,-0.1172 -0.0293,-0.2344 -0.0293,-0.4102 0,-0.0879 0,-0.2345 0.0293,-0.4396 h -0.0293 c -0.4102,0.6154 -0.9963,0.9377 -1.7875,0.9377 z m 0.4102,-0.967 c 0.381,0 0.674,-0.1172 0.9085,-0.3809 0.2344,-0.2345 0.3516,-0.6154 0.3516,-1.1136 -0.1172,0 -0.2637,-0.0293 -0.4396,-0.0293 -0.5567,0 -0.967,0.0586 -1.2307,0.1758 -0.2638,0.1172 -0.4103,0.3224 -0.4103,0.6154 0,0.2344 0.0586,0.4103 0.2051,0.5275 0.1466,0.1465 0.3517,0.2051 0.6154,0.2051 z"
     fill="#ffffff"
     id="path198"
     style="opacity:0.8;fill:#000000" />
  <path
     d="m 54.2129,77.9724 v -5.1282 h 4.7472 v 5.1282 h -1.3186 v -4.1318 h -2.1099 v 4.1318 z"
     fill="#ffffff"
     id="path200"
     style="opacity:0.8;fill:#000000" />
  <path
     d="m 60.4541,71.8775 v -1.2894 h 1.348 v 1.2894 z m 0,6.0952 v -5.1282 h 1.348 v 5.1282 z"
     fill="#ffffff"
     id="path202"
     style="opacity:0.8;fill:#000000" />
  <path
     d="M 62.6523,79.3207 V 76.947 h 0.4396 c 0.2344,-0.3516 0.381,-0.7326 0.4689,-1.1135 0.0879,-0.4103 0.1465,-0.9377 0.1465,-1.5531 v -1.4359 h 4.1319 v 4.1319 h 0.586 V 79.35 h -1.1721 v -1.348 h -3.4579 v 1.348 h -1.1429 z m 1.7876,-2.3443 h 2.1099 v -3.1356 h -1.6117 v 0.6447 c 0,1.0843 -0.1759,1.9341 -0.4982,2.4909 z"
     fill="#ffffff"
     id="path204"
     style="opacity:0.8;fill:#000000" />
  <path
     d="m 70.4174,77.9727 v -4.1319 h -1.641 v -0.9963 h 4.63 v 0.9963 h -1.6703 v 4.1319 z"
     fill="#ffffff"
     id="path206"
     style="opacity:0.8;fill:#000000" />
  <path
     d="m 74.2276,80.0528 v -5.6557 c 0,-0.674 -0.0294,-1.2014 -0.0587,-1.5531 h 1.2894 c 0.0293,0.2931 0.0293,0.5568 0.0293,0.8205 h 0.0293 c 0.4396,-0.6447 0.9964,-0.9377 1.729,-0.9377 0.674,0 1.2014,0.2344 1.5824,0.7033 0.3809,0.4689 0.5861,1.1136 0.5861,1.9048 0,0.8205 -0.2052,1.4652 -0.6154,1.9926 -0.4103,0.4982 -0.9378,0.7619 -1.6117,0.7619 -0.7033,0 -1.2601,-0.3223 -1.6411,-0.9377 h -0.0293 c 0.0293,0.2051 0.0293,0.6154 0.0293,1.2601 v 1.641 z m 1.6996,-3.4579 c 0.2344,0.3224 0.5275,0.4689 0.9084,0.4689 0.381,0 0.674,-0.1465 0.8791,-0.4689 0.2052,-0.3223 0.3224,-0.7033 0.3224,-1.2014 0,-0.4982 -0.1172,-0.8791 -0.3224,-1.1722 -0.2051,-0.293 -0.4981,-0.4395 -0.8791,-0.4395 -0.3809,0 -0.674,0.1465 -0.9084,0.4688 -0.2344,0.3224 -0.3517,0.7033 -0.3517,1.1722 0,0.4688 0.1173,0.8498 0.3517,1.1721 z"
     fill="#ffffff"
     id="path208"
     style="opacity:0.8;fill:#000000" />
  <path
     d="m 80.5566,77.9717 v -5.1282 h 1.3187 v 1.3773 c 0,0.674 -0.0293,1.348 -0.0586,2.0513 h 0.0293 l 2.2271,-3.4579 h 1.3773 v 5.1282 h -1.3187 v -1.4066 c 0,-0.6447 0.0293,-1.2894 0.0586,-1.9633 H 84.161 l -2.1978,3.3699 h -1.4066 z"
     fill="#ffffff"
     id="path210"
     style="opacity:0.8;fill:#000000" />
  <path
     d="m 86.8564,77.9727 v -5.1282 h 1.9634 l 1.2601,3.8974 1.2601,-3.8974 h 1.934 v 5.1282 h -1.2307 v -2.1392 c 0,-0.674 0.0293,-1.348 0.0586,-2.0513 h -0.0293 l -1.4066,4.1905 h -1.2601 l -1.3773,-4.1905 h -0.0293 c 0.0293,0.6154 0.0586,1.348 0.0586,2.1685 v 2.022 z"
     fill="#ffffff"
     id="path212"
     style="opacity:0.8;fill:#000000" />
  <path
     d="M 98.0223,77.9724 97.0845,76.771 C 96.645,76.2142 96.352,75.8039 96.1468,75.5109 h -0.0293 v 2.4615 h -1.348 v -5.1282 h 1.348 v 2.3151 h 0.0293 c 0.0586,-0.0587 0.1465,-0.1759 0.2638,-0.3224 0.1172,-0.1758 0.2344,-0.3223 0.3516,-0.4395 0.1172,-0.1466 0.2051,-0.2638 0.2931,-0.381 l 0.8791,-1.1722 h 1.5238 l -2.0806,2.4323 2.315,2.6959 z"
     fill="#ffffff"
     id="path214"
     style="opacity:0.8;fill:#000000" />
  <path
     d="m 100.425,77.9717 v -5.1282 h 1.318 v 1.3773 c 0,0.674 -0.029,1.348 -0.058,2.0513 h 0.029 l 2.227,-3.4579 h 1.378 v 5.1282 H 104 v -1.4066 c 0,-0.6447 0.029,-1.2894 0.059,-1.9633 h -0.03 l -2.198,3.3699 h -1.406 z"
     fill="#ffffff"
     id="path216"
     style="opacity:0.8;fill:#000000" />
  <path
     d="m 109.333,77.9726 v -6.945 h 1.407 v 5.7729 h 2.344 v -5.7729 h 1.407 v 5.7729 h 2.344 v -5.7729 h 1.406 v 6.945 z"
     fill="#ffffff"
     id="path218"
     style="opacity:0.8;fill:#000000" />
  <path
     d="m 119.824,77.9724 v -5.1282 h 2.638 c 0.322,0 0.586,0.0293 0.82,0.1173 0.235,0.0586 0.44,0.2051 0.645,0.4102 0.176,0.2051 0.264,0.4396 0.264,0.7619 0,0.6447 -0.323,1.055 -0.997,1.1722 0.352,0.0586 0.616,0.2051 0.821,0.4102 0.205,0.2052 0.322,0.4689 0.322,0.8205 0,0.9671 -0.674,1.4652 -2.022,1.4652 h -2.491 z m 1.29,-3.0769 h 0.908 c 0.557,0 0.821,-0.2051 0.821,-0.5861 0,-0.3809 -0.294,-0.586 -0.88,-0.586 h -0.849 z m 0,2.1685 h 0.996 c 0.293,0 0.527,-0.0586 0.674,-0.1758 0.146,-0.1172 0.234,-0.293 0.234,-0.4982 0,-0.4102 -0.322,-0.6154 -0.937,-0.6154 h -0.967 z"
     fill="#ffffff"
     id="path220"
     style="opacity:0.8;fill:#000000" />
  <path
     d="m 127.883,78.0899 c -0.85,0 -1.524,-0.2344 -2.022,-0.7033 -0.499,-0.4688 -0.762,-1.1428 -0.762,-1.9926 0,-0.7913 0.234,-1.4066 0.703,-1.9048 0.469,-0.4982 1.084,-0.7326 1.846,-0.7326 1.495,0 2.256,0.9084 2.256,2.7253 0,0.1172 0,0.2344 -0.029,0.3223 h -3.428 c 0,0.381 0.146,0.7033 0.439,0.9377 0.293,0.2345 0.674,0.3517 1.143,0.3517 0.557,0 1.055,-0.1465 1.495,-0.4103 l 0.029,1.0843 c -0.469,0.2051 -1.026,0.3223 -1.67,0.3223 z m -1.436,-3.2234 h 2.256 c 0,-0.7912 -0.352,-1.2015 -1.084,-1.2015 -0.323,0 -0.586,0.1172 -0.791,0.3224 -0.206,0.2051 -0.352,0.4981 -0.381,0.8791 z"
     fill="#ffffff"
     id="path222"
     style="opacity:0.8;fill:#000000" />
  <path
     d="m 131.047,77.9723 v -5.1282 h 1.319 v 1.3773 c 0,0.674 -0.03,1.3479 -0.059,2.0512 h 0.029 l 2.227,-3.4578 h 1.378 v 5.1282 h -1.319 v -1.4066 c 0,-0.6447 0.029,-1.2894 0.059,-1.9634 h -0.03 l -2.198,3.37 h -1.406 z m 2.432,-5.8315 c -0.439,0 -0.791,-0.1172 -1.055,-0.381 -0.264,-0.2344 -0.469,-0.5275 -0.586,-0.8791 l 0.586,-0.3516 c 0.235,0.4688 0.586,0.7032 1.055,0.7032 0.44,0 0.791,-0.2344 1.055,-0.7032 l 0.586,0.3516 c -0.117,0.3223 -0.322,0.6154 -0.586,0.8791 -0.264,0.2638 -0.615,0.381 -1.055,0.381 z"
     fill="#ffffff"
     id="path224"
     style="opacity:0.8;fill:#000000" />
  <path
     d="m 141.539,79.3207 v -1.348 h -4.19 v -5.1282 h 1.318 v 4.1319 h 2.11 v -4.1319 h 1.319 v 4.1319 h 0.586 V 79.35 h -1.143 z"
     fill="#ffffff"
     id="path226"
     style="opacity:0.8;fill:#000000" />
  <path
     d="m 144.938,78.0601 c -0.498,0 -0.909,-0.1465 -1.231,-0.4395 -0.322,-0.2931 -0.469,-0.674 -0.469,-1.1722 0,-0.5275 0.235,-0.9377 0.674,-1.2308 0.469,-0.293 1.114,-0.4395 1.964,-0.4395 0.234,0 0.498,0 0.732,0.0293 0,-0.381 -0.088,-0.674 -0.293,-0.8498 -0.205,-0.1758 -0.498,-0.2638 -0.908,-0.2638 -0.528,0 -1.055,0.1466 -1.553,0.4689 l -0.059,-1.0256 c 0.498,-0.2638 1.114,-0.4103 1.846,-0.4103 1.495,0 2.227,0.7033 2.227,2.0806 0,0.1172 0,0.3809 0,0.7619 0,0.381 0,0.6447 0,0.7619 0,0.5568 0.03,1.1136 0.059,1.641 h -1.172 c 0,-0.1172 -0.03,-0.2344 -0.03,-0.4102 0,-0.0879 0,-0.2345 0.03,-0.4396 h -0.03 c -0.41,0.6154 -0.996,0.9377 -1.787,0.9377 z m 0.41,-0.967 c 0.381,0 0.674,-0.1172 0.909,-0.3809 0.234,-0.2345 0.351,-0.6154 0.351,-1.1136 -0.117,0 -0.263,-0.0293 -0.439,-0.0293 -0.557,0 -0.967,0.0586 -1.231,0.1758 -0.264,0.1172 -0.41,0.3224 -0.41,0.6154 0,0.2344 0.058,0.4103 0.205,0.5275 0.176,0.1465 0.351,0.2051 0.615,0.2051 z"
     fill="#ffffff"
     id="path228"
     style="opacity:0.8;fill:#000000" />
  <path
     d="m 149.158,80.0528 v -5.6557 c 0,-0.674 -0.029,-1.2014 -0.058,-1.5531 h 1.289 c 0.029,0.2931 0.029,0.5568 0.029,0.8205 h 0.03 c 0.439,-0.6447 0.996,-0.9377 1.729,-0.9377 0.674,0 1.201,0.2344 1.582,0.7033 0.381,0.4689 0.586,1.1136 0.586,1.9048 0,0.8205 -0.205,1.4652 -0.615,1.9926 -0.411,0.4982 -0.938,0.7619 -1.612,0.7619 -0.703,0 -1.26,-0.3223 -1.641,-0.9377 h -0.029 c 0.029,0.2051 0.029,0.6154 0.029,1.2601 v 1.641 z m 1.671,-3.4579 c 0.234,0.3224 0.527,0.4689 0.908,0.4689 0.381,0 0.674,-0.1465 0.879,-0.4689 0.205,-0.3223 0.322,-0.7033 0.322,-1.2014 0,-0.4982 -0.117,-0.8791 -0.322,-1.1722 -0.205,-0.293 -0.498,-0.4395 -0.879,-0.4395 -0.381,0 -0.674,0.1465 -0.908,0.4688 -0.235,0.3224 -0.352,0.7033 -0.352,1.1722 0,0.4688 0.117,0.8498 0.352,1.1721 z"
     fill="#ffffff"
     id="path230"
     style="opacity:0.8;fill:#000000" />
  <path
     d="m 155.517,71.8773 v -1.2894 h 1.348 v 1.2894 z m 0,6.0952 v -5.1282 h 1.348 v 5.1282 z"
     fill="#ffffff"
     id="path232"
     style="opacity:0.8;fill:#000000" />
  <path
     d="m 157.45,71.8184 v -1.1722 h 1.143 v 1.1722 z m 0.909,6.1538 V 72.844 h 1.348 v 5.1282 z m 2.315,-7.326 v 1.1722 h -1.143 v -1.1722 z"
     fill="#ffffff"
     id="path234"
     style="opacity:0.8;fill:#000000" />
  <defs
     id="defs241">
    <clipPath
       id="clip0_2100_1031">
      <rect
         id="rect238"
         transform="translate(0 0.0529785)"
         fill="white"
         height="80"
         width="208.264" />
    </clipPath>
  </defs>
</svg>
