<?xml version="1.0" encoding="UTF-8" standalone="no"?>
<svg
   xmlns:dc="http://purl.org/dc/elements/1.1/"
   xmlns:cc="http://creativecommons.org/ns#"
   xmlns:rdf="http://www.w3.org/1999/02/22-rdf-syntax-ns#"
   xmlns:svg="http://www.w3.org/2000/svg"
   xmlns="http://www.w3.org/2000/svg"
   xmlns:sodipodi="http://sodipodi.sourceforge.net/DTD/sodipodi-0.dtd"
   xmlns:inkscape="http://www.inkscape.org/namespaces/inkscape"
   width="185.5065mm"
   height="34.462463mm"
   viewBox="0 0 185.5065 34.462464"
   version="1.1"
   id="svg8"
   inkscape:version="1.0 (4035a4f, 2020-05-01)"
   sodipodi:docname="victoryV1.svg">
  <defs
     id="defs2" />
  <sodipodi:namedview
     fit-margin-bottom="0"
     fit-margin-right="0"
     fit-margin-left="0"
     fit-margin-top="0"
     id="base"
     pagecolor="#ffffff"
     bordercolor="#666666"
     borderopacity="1.0"
     inkscape:pageopacity="0.0"
     inkscape:pageshadow="2"
     inkscape:zoom="0.78397385"
     inkscape:cx="464.81201"
     inkscape:cy="25.235348"
     inkscape:document-units="mm"
     inkscape:current-layer="layer1"
     inkscape:document-rotation="0"
     showgrid="false"
     showborder="false"
     inkscape:window-width="1440"
     inkscape:window-height="776"
     inkscape:window-x="0"
     inkscape:window-y="23"
     inkscape:window-maximized="1" />
  <metadata
     id="metadata5">
    <rdf:RDF>
      <cc:Work
         rdf:about="">
        <dc:format>image/svg+xml</dc:format>
        <dc:type
           rdf:resource="http://purl.org/dc/dcmitype/StillImage" />
        <dc:title></dc:title>
      </cc:Work>
    </rdf:RDF>
  </metadata>
  <g
     transform="translate(335.85464,-243.88329)"
     inkscape:label="Layer 1"
     inkscape:groupmode="layer"
     id="layer1">
    <g
       transform="matrix(-0.33052293,0,0,0.33052293,-149.30052,215.29055)"
       id="g959">
      <path
         sodipodi:nodetypes="sssssssss"
         d="M 162.1957,122.28171 41.163664,154.71215 c -3.559041,0.95364 -6.787118,5.10719 -4.702885,8.14562 l 13.485053,19.65876 c 2.084233,3.03843 4.58659,5.65652 8.145631,4.70288 L 163.78942,158.89773 c 3.55904,-0.95364 4.4171,-4.47216 4.70288,-8.14563 l 1.84902,-23.76751 c 0.28578,-3.67348 -4.58659,-5.65652 -8.14562,-4.70288 z"
         style="fill:none;stroke:#000000;stroke-width:3.175;stroke-linecap:round;stroke-linejoin:round;stroke-miterlimit:4;stroke-dasharray:none;stop-color:#000000"
         id="rect24" />
      <path
         sodipodi:nodetypes="ccccccccc"
         id="path26"
         d="m 127.58154,98.278162 -47.840958,12.818948 -6.889516,12.70041 2.842092,10.60684 12.25777,7.33549 47.841342,-12.81905 6.55519,-12.37652 -2.84216,-10.60708 z"
         style="fill:none;stroke:#000000;stroke-width:3.175;stroke-linecap:butt;stroke-linejoin:miter;stroke-miterlimit:4;stroke-dasharray:none;stroke-opacity:1" />
      <rect
         transform="matrix(-0.96592583,0.25881905,0.25881905,0.96592583,0,0)"
         y="140.72939"
         x="-8.2387877"
         height="6.39116"
         width="41.296162"
         id="rect32"
         style="fill:none;stroke:#000000;stroke-width:2.64583;stroke-linecap:round;stroke-linejoin:round;stroke-miterlimit:4;stroke-dasharray:none;stop-color:#000000" />
      <path
         sodipodi:nodetypes="cccc"
         id="path860"
         d="m 46.64828,142.18691 29.044878,-7.78255 -2.842092,-10.60684 -29.045274,7.78266 z"
         style="fill:none;stroke:#000000;stroke-width:3.175;stroke-linecap:butt;stroke-linejoin:miter;stroke-miterlimit:4;stroke-dasharray:none;stroke-opacity:1" />
      <g
         style="stroke-width:2.64583;stroke-miterlimit:4;stroke-dasharray:none"
         transform="matrix(-0.96592583,0.25881905,0.25881905,0.96592583,168.85217,-28.457797)"
         id="g884">
        <circle
           style="fill:none;stroke:#000000;stroke-width:2.64583;stroke-linecap:round;stroke-linejoin:round;stroke-miterlimit:4;stroke-dasharray:none;stop-color:#000000"
           id="path868"
           cx="63.815224"
           cy="161.77078"
           r="9.0583515" />
        <circle
           r="9.0583515"
           cy="161.77078"
           cx="93.210434"
           id="circle874"
           style="fill:none;stroke:#000000;stroke-width:2.64583;stroke-linecap:round;stroke-linejoin:round;stroke-miterlimit:4;stroke-dasharray:none;stop-color:#000000" />
        <circle
           style="fill:none;stroke:#000000;stroke-width:2.64583;stroke-linecap:round;stroke-linejoin:round;stroke-miterlimit:4;stroke-dasharray:none;stop-color:#000000"
           id="circle876"
           cx="122.60564"
           cy="161.77078"
           r="9.0583515" />
        <circle
           r="9.0583515"
           cy="161.77078"
           cx="152.00085"
           id="circle878"
           style="fill:none;stroke:#000000;stroke-width:2.64583;stroke-linecap:round;stroke-linejoin:round;stroke-miterlimit:4;stroke-dasharray:none;stop-color:#000000" />
      </g>
      <path
         id="path986"
         style="fill:none;stroke:#000000;stroke-width:3.96875;stroke-linecap:round;stroke-linejoin:round;stroke-miterlimit:4;stroke-dasharray:none;stop-color:#000000"
         d="m 239.49945,163.76259 a 24.732984,24.732984 0 0 1 -24.73299,24.73298 24.732984,24.732984 0 0 1 -24.73298,-24.73298 24.732984,24.732984 0 0 1 24.73298,-24.73298 24.732984,24.732984 0 0 1 24.73299,24.73298" />
      <path
         id="path988"
         style="fill:none;stroke:#000000;stroke-width:3.96875;stroke-linecap:round;stroke-linejoin:round;stroke-miterlimit:4;stroke-dasharray:none;stop-color:#000000"
         d="m 303.05928,174.13253 a 15.211099,14.596562 0 0 1 -15.2111,14.59657 15.211099,14.596562 0 0 1 -15.2111,-14.59657 15.211099,14.596562 0 0 1 15.2111,-14.59656 15.211099,14.596562 0 0 1 15.2111,14.59656" />
      <path
         id="rect990"
         style="fill:none;stroke:#000000;stroke-width:2.64583;stroke-linecap:round;stroke-linejoin:round;stroke-miterlimit:4;stroke-dasharray:none;stop-color:#000000"
         d="m 263.93686,118.77267 h 8.0827 v 14.81827 h -8.0827 z" />
      <path
         sodipodi:nodetypes="cc"
         id="path992"
         d="m 267.94494,118.63768 c -0.0899,-4.9396 -1.55421,-11.29814 5.02931,-11.47802"
         style="fill:none;stroke:#000000;stroke-width:2.64583;stroke-linecap:butt;stroke-linejoin:miter;stroke-miterlimit:4;stroke-dasharray:none;stroke-opacity:1" />
      <path
         id="path994"
         d="m 237.83163,104.5286 h -34.36547 v 29.97215 h 44.226 z"
         style="fill:none;stroke:#000000;stroke-width:2.64583;stroke-linecap:butt;stroke-linejoin:miter;stroke-miterlimit:4;stroke-dasharray:none;stroke-opacity:1" />
      <path
         id="path996"
         d="m 224.35881,104.72386 4.58857,29.77689"
         style="fill:none;stroke:#000000;stroke-width:2.11667;stroke-linecap:butt;stroke-linejoin:miter;stroke-miterlimit:4;stroke-dasharray:none;stroke-opacity:1" />
      <path
         sodipodi:nodetypes="cc"
         id="path998"
         d="m 203.46616,134.50075 c -8.42389,3.79691 -11.64721,6.50396 -14.89599,13.72612"
         style="fill:none;stroke:#000000;stroke-width:2.64583;stroke-linecap:butt;stroke-linejoin:miter;stroke-miterlimit:4;stroke-dasharray:none;stroke-opacity:1" />
      <path
         d="m 221.39853,134.57016 c 13.34068,1.82259 23.28515,13.61121 23.28508,27.07581 -3e-5,0.93157 -0.0484,1.86251 -0.14486,2.78907 h 26.29691 a 18.996298,18.228837 0 0 1 17.01275,-10.11864 18.996298,18.228837 0 0 1 17.01228,10.11864 h 5.06069 v -18.28088 h -12.90135 v -11.584 z"
         style="fill:none;stroke:#000000;stroke-width:2.64583;stroke-linecap:round;stroke-linejoin:round;stroke-miterlimit:4;stroke-dasharray:none;stop-color:#000000"
         id="rect1000" />
      <path
         id="path1015"
         style="fill:none;stroke:#000000;stroke-width:3.175;stroke-linecap:round;stroke-linejoin:round;stroke-miterlimit:4;stroke-dasharray:none;stop-color:#000000"
         d="m 223.25646,164.12753 a 7.9611147,7.9611147 0 0 1 -7.96111,7.96111 7.9611147,7.9611147 0 0 1 -7.96112,-7.96111 7.9611147,7.9611147 0 0 1 7.96112,-7.96112 7.9611147,7.9611147 0 0 1 7.96111,7.96112" />
      <path
         id="path1017"
         style="fill:none;stroke:#000000;stroke-width:3.175;stroke-linecap:round;stroke-linejoin:round;stroke-miterlimit:4;stroke-dasharray:none;stop-color:#000000"
         d="m 293.132,174.21317 a 4.9782181,4.9782181 0 0 1 -4.97821,4.97821 4.9782181,4.9782181 0 0 1 -4.97823,-4.97821 4.9782181,4.9782181 0 0 1 4.97823,-4.97822 4.9782181,4.9782181 0 0 1 4.97821,4.97822" />
      <path
         sodipodi:nodetypes="cc"
         id="path1036"
         d="m 150.74064,162.5893 c 13.49978,-2.94139 26.1,-7.29047 37.82953,-14.36243"
         style="fill:none;stroke:#000000;stroke-width:1.05833;stroke-linecap:butt;stroke-linejoin:miter;stroke-miterlimit:4;stroke-dasharray:none;stroke-opacity:1" />
      <path
         id="path1038"
         d="M 215.10294,189.92656 H 154.68763"
         style="fill:none;stroke:#000000;stroke-width:1.05833;stroke-linecap:butt;stroke-linejoin:miter;stroke-miterlimit:4;stroke-dasharray:none;stroke-opacity:1" />
      <path
         style="fill:none;stroke:#000000;stroke-width:1.05833;stroke-linecap:butt;stroke-linejoin:miter;stroke-miterlimit:4;stroke-dasharray:none;stroke-opacity:1"
         d="M 291.04259,189.92656 H 230.62728"
         id="path1056" />
    </g>
    <g
       transform="matrix(0.30938869,0,0,0.30938869,-249.58858,219.48858)"
       id="g927">
      <g
         transform="translate(-612.17105,2.372756)"
         id="g935">
        <rect
           ry="0"
           y="76.475357"
           x="333.3436"
           height="55.66206"
           width="244.3615"
           id="rect888"
           style="fill:#0057b7;fill-opacity:1;stroke:none;stroke-width:1.31119;stroke-linecap:round;stroke-linejoin:round;stop-color:#000000" />
        <rect
           style="fill:#ffd700;fill-opacity:1;stroke:none;stroke-width:1.31119;stroke-linecap:round;stroke-linejoin:round;stop-color:#000000"
           id="rect888-0"
           width="244.36151"
           height="55.66206"
           x="333.3436"
           y="132.13742"
           ry="0" />
        <text
           id="text913"
           y="118.05233"
           x="352.2851"
           style="font-size:37.0417px;line-height:0.8;font-family:e-Ukraine;-inkscape-font-specification:e-Ukraine;fill:#ffffff;stroke:none;stroke-width:0.264583"
           xml:space="preserve"><tspan
             style="font-size:37.0417px;fill:#ffffff;stroke:none;stroke-width:0.264583"
             y="118.05233"
             x="352.2851"
             id="tspan911"
             sodipodi:role="line">ПЕРЕ-</tspan></text>
        <text
           id="text917"
           y="173.71439"
           x="352.2851"
           style="font-size:37.0417px;line-height:0.8;font-family:e-Ukraine;-inkscape-font-specification:e-Ukraine;fill:#000000;stroke:none;stroke-width:0.264583"
           xml:space="preserve"><tspan
             style="font-size:37.0417px;fill:#000000;stroke:none;stroke-width:0.264583"
             y="173.71439"
             x="352.2851"
             id="tspan915"
             sodipodi:role="line">МОЖЕМО!</tspan></text>
      </g>
    </g>
  </g>
</svg>
